<svg xmlns="http://www.w3.org/2000/svg" xmlns:xlink="http://www.w3.org/1999/xlink" width="94" zoomAndPan="magnify" viewBox="0 0 70.5 62.999997" height="84" preserveAspectRatio="xMidYMid meet" version="1.0"><defs><g/><clipPath id="70f4f843f9"><path d="M 0 10 L 70.003906 10 L 70.003906 53 L 0 53 Z M 0 10 " clip-rule="nonzero"/></clipPath><clipPath id="46fbb070b5"><path d="M 0.00390625 3.707031 L 69.945312 3.707031 L 69.945312 38.679688 L 0.00390625 38.679688 Z M 0.00390625 3.707031 " clip-rule="nonzero"/></clipPath><clipPath id="732ab83248"><path d="M 2.234375 3.707031 L 67.765625 3.707031 C 69 3.707031 70 4.707031 70 5.941406 L 70 36.644531 C 70 37.878906 69 38.878906 67.765625 38.878906 L 2.234375 38.878906 C 1.003906 38.878906 0.00390625 37.878906 0.00390625 36.644531 L 0.00390625 5.941406 C 0.00390625 4.707031 1.003906 3.707031 2.234375 3.707031 Z M 2.234375 3.707031 " clip-rule="nonzero"/></clipPath><clipPath id="7dd2154ca9"><path d="M 0.191406 1 L 5 1 L 5 6 L 0.191406 6 Z M 0.191406 1 " clip-rule="nonzero"/></clipPath><clipPath id="34f3d888e1"><path d="M 62 1 L 67.871094 1 L 67.871094 6 L 62 6 Z M 62 1 " clip-rule="nonzero"/></clipPath><clipPath id="ad565f01a6"><rect x="0" width="68" y="0" height="8"/></clipPath><clipPath id="46de63f1d5"><path d="M 0.589844 0.0117188 L 4 0.0117188 L 4 5 L 0.589844 5 Z M 0.589844 0.0117188 " clip-rule="nonzero"/></clipPath><clipPath id="0745f53043"><path d="M 3 0.0117188 L 7 0.0117188 L 7 5 L 3 5 Z M 3 0.0117188 " clip-rule="nonzero"/></clipPath><clipPath id="c3f0caff32"><path d="M 7 0.0117188 L 12 0.0117188 L 12 5 L 7 5 Z M 7 0.0117188 " clip-rule="nonzero"/></clipPath><clipPath id="e9983c78d6"><path d="M 11 0.0117188 L 16 0.0117188 L 16 5 L 11 5 Z M 11 0.0117188 " clip-rule="nonzero"/></clipPath><clipPath id="64236c027a"><path d="M 15 0.0117188 L 19 0.0117188 L 19 5 L 15 5 Z M 15 0.0117188 " clip-rule="nonzero"/></clipPath><clipPath id="f5d16bd96f"><path d="M 20 0.0117188 L 24 0.0117188 L 24 5 L 20 5 Z M 20 0.0117188 " clip-rule="nonzero"/></clipPath><clipPath id="97e90919ba"><path d="M 23 0.0117188 L 27 0.0117188 L 27 5 L 23 5 Z M 23 0.0117188 " clip-rule="nonzero"/></clipPath><clipPath id="4c01e9ed49"><path d="M 26 0.0117188 L 29 0.0117188 L 29 5 L 26 5 Z M 26 0.0117188 " clip-rule="nonzero"/></clipPath><clipPath id="25a3376302"><path d="M 29 0.0117188 L 32 0.0117188 L 32 5 L 29 5 Z M 29 0.0117188 " clip-rule="nonzero"/></clipPath><clipPath id="8e48445950"><rect x="0" width="33" y="0" height="7"/></clipPath><clipPath id="f0329c37aa"><path d="M 1 1 L 3 1 L 3 3.929688 L 1 3.929688 Z M 1 1 " clip-rule="nonzero"/></clipPath><clipPath id="b5078f8d4a"><path d="M 2 1 L 5 1 L 5 3.929688 L 2 3.929688 Z M 2 1 " clip-rule="nonzero"/></clipPath><clipPath id="d9ae7ca7ac"><path d="M 5 1 L 7 1 L 7 3.929688 L 5 3.929688 Z M 5 1 " clip-rule="nonzero"/></clipPath><clipPath id="4d2e85c699"><path d="M 6 1 L 8 1 L 8 3.929688 L 6 3.929688 Z M 6 1 " clip-rule="nonzero"/></clipPath><clipPath id="f1adee74f3"><path d="M 7 1 L 8 1 L 8 3.929688 L 7 3.929688 Z M 7 1 " clip-rule="nonzero"/></clipPath><clipPath id="680561565d"><path d="M 7 1 L 9 1 L 9 3.929688 L 7 3.929688 Z M 7 1 " clip-rule="nonzero"/></clipPath><clipPath id="b213f12dd4"><path d="M 8 3 L 9 3 L 9 3.929688 L 8 3.929688 Z M 8 3 " clip-rule="nonzero"/></clipPath><clipPath id="cd2d5e701b"><path d="M 9 1 L 10 1 L 10 3.929688 L 9 3.929688 Z M 9 1 " clip-rule="nonzero"/></clipPath><clipPath id="0fd024d48e"><path d="M 9 1 L 12 1 L 12 3.929688 L 9 3.929688 Z M 9 1 " clip-rule="nonzero"/></clipPath><clipPath id="4f21f3c042"><path d="M 11 1 L 13 1 L 13 3.929688 L 11 3.929688 Z M 11 1 " clip-rule="nonzero"/></clipPath><clipPath id="f38e8fd715"><path d="M 12 1 L 14 1 L 14 3.929688 L 12 3.929688 Z M 12 1 " clip-rule="nonzero"/></clipPath><clipPath id="c711f0ef14"><path d="M 13 1 L 17 1 L 17 3.929688 L 13 3.929688 Z M 13 1 " clip-rule="nonzero"/></clipPath><clipPath id="6dcac2f2b0"><path d="M 16 1 L 18 1 L 18 3.929688 L 16 3.929688 Z M 16 1 " clip-rule="nonzero"/></clipPath><clipPath id="70b0e0386a"><path d="M 17 1 L 20 1 L 20 3.929688 L 17 3.929688 Z M 17 1 " clip-rule="nonzero"/></clipPath><clipPath id="ff62b81303"><path d="M 19 1 L 21 1 L 21 3.929688 L 19 3.929688 Z M 19 1 " clip-rule="nonzero"/></clipPath><clipPath id="b4218b4cfa"><path d="M 21 1 L 23 1 L 23 3.929688 L 21 3.929688 Z M 21 1 " clip-rule="nonzero"/></clipPath><clipPath id="81e5392561"><path d="M 22 1 L 25 1 L 25 3.929688 L 22 3.929688 Z M 22 1 " clip-rule="nonzero"/></clipPath><clipPath id="3ef48a74d9"><path d="M 24 1 L 26 1 L 26 3.929688 L 24 3.929688 Z M 24 1 " clip-rule="nonzero"/></clipPath><clipPath id="144086581b"><path d="M 25 1 L 27 1 L 27 3.929688 L 25 3.929688 Z M 25 1 " clip-rule="nonzero"/></clipPath><clipPath id="54c42a130a"><path d="M 26 1 L 28 1 L 28 3.929688 L 26 3.929688 Z M 26 1 " clip-rule="nonzero"/></clipPath><clipPath id="530f175451"><path d="M 28 1 L 30 1 L 30 3.929688 L 28 3.929688 Z M 28 1 " clip-rule="nonzero"/></clipPath><clipPath id="ebe1ef84ec"><path d="M 29 1 L 31 1 L 31 3.929688 L 29 3.929688 Z M 29 1 " clip-rule="nonzero"/></clipPath><clipPath id="52096af2f1"><path d="M 30 1 L 32 1 L 32 3.929688 L 30 3.929688 Z M 30 1 " clip-rule="nonzero"/></clipPath><clipPath id="dea48410ce"><path d="M 31 1 L 34 1 L 34 3.929688 L 31 3.929688 Z M 31 1 " clip-rule="nonzero"/></clipPath><clipPath id="854b36135e"><path d="M 33 2 L 34 2 L 34 3.929688 L 33 3.929688 Z M 33 2 " clip-rule="nonzero"/></clipPath><clipPath id="71ec2c365b"><path d="M 33 1 L 36 1 L 36 3.929688 L 33 3.929688 Z M 33 1 " clip-rule="nonzero"/></clipPath><clipPath id="9cd15f3e55"><path d="M 35 1 L 37 1 L 37 3.929688 L 35 3.929688 Z M 35 1 " clip-rule="nonzero"/></clipPath><clipPath id="23609f4e04"><path d="M 36 2 L 38 2 L 38 3.929688 L 36 3.929688 Z M 36 2 " clip-rule="nonzero"/></clipPath><clipPath id="5cae19804c"><path d="M 37 1 L 39 1 L 39 3.929688 L 37 3.929688 Z M 37 1 " clip-rule="nonzero"/></clipPath><clipPath id="a5f354bb56"><path d="M 38 1 L 40.382812 1 L 40.382812 3.929688 L 38 3.929688 Z M 38 1 " clip-rule="nonzero"/></clipPath><clipPath id="08cfdb9cfb"><rect x="0" width="41" y="0" height="4"/></clipPath><clipPath id="2106912c32"><path d="M 0.242188 1 L 4 1 L 4 5 L 0.242188 5 Z M 0.242188 1 " clip-rule="nonzero"/></clipPath><clipPath id="d62d4a1e3e"><path d="M 42 3 L 44 3 L 44 5.878906 L 42 5.878906 Z M 42 3 " clip-rule="nonzero"/></clipPath><clipPath id="ae8923a5ae"><path d="M 58 1 L 59.820312 1 L 59.820312 5 L 58 5 Z M 58 1 " clip-rule="nonzero"/></clipPath><clipPath id="abdb394e08"><rect x="0" width="60" y="0" height="6"/></clipPath><clipPath id="f5d3c3d7f7"><rect x="0" width="71" y="0" height="43"/></clipPath></defs><g clip-path="url(#70f4f843f9)"><g transform="matrix(1, 0, 0, 1, 0, 10)"><g clip-path="url(#f5d3c3d7f7)"><g clip-path="url(#46fbb070b5)"><g clip-path="url(#732ab83248)"><path stroke-linecap="butt" transform="matrix(0.744085, 0, 0, 0.744085, 0.000000000221943, 3.708012)" fill="none" stroke-linejoin="miter" d="M 3.002849 -0.00131806 L 91.072419 -0.00131806 C 92.731336 -0.00131806 94.075268 1.342614 94.075268 3.001531 L 94.075268 44.264456 C 94.075268 45.923372 92.731336 47.267305 91.072419 47.267305 L 3.002849 47.267305 C 1.349182 47.267305 0.00524974 45.923372 0.00524974 44.264456 L 0.00524974 3.001531 C 0.00524974 1.342614 1.349182 -0.00131806 3.002849 -0.00131806 Z M 3.002849 -0.00131806 " stroke="#000000" stroke-width="2" stroke-opacity="1" stroke-miterlimit="4"/></g></g><g transform="matrix(1, 0, 0, 1, 1, 6)"><g clip-path="url(#ad565f01a6)"><g clip-path="url(#7dd2154ca9)"><g fill="#000000" fill-opacity="1"><g transform="translate(0.289386, 5.917826)"><g><path d="M 2.46875 0.078125 C 2.050781 0.078125 1.671875 -0.015625 1.328125 -0.203125 C 0.984375 -0.390625 0.710938 -0.644531 0.515625 -0.96875 C 0.328125 -1.289062 0.234375 -1.660156 0.234375 -2.078125 C 0.234375 -2.484375 0.328125 -2.847656 0.515625 -3.171875 C 0.710938 -3.503906 0.984375 -3.757812 1.328125 -3.9375 C 1.671875 -4.125 2.054688 -4.21875 2.484375 -4.21875 C 2.835938 -4.21875 3.160156 -4.15625 3.453125 -4.03125 C 3.742188 -3.90625 3.988281 -3.722656 4.1875 -3.484375 L 3.578125 -2.90625 C 3.296875 -3.238281 2.945312 -3.40625 2.53125 -3.40625 C 2.269531 -3.40625 2.039062 -3.347656 1.84375 -3.234375 C 1.644531 -3.117188 1.488281 -2.957031 1.375 -2.75 C 1.257812 -2.550781 1.203125 -2.328125 1.203125 -2.078125 C 1.203125 -1.816406 1.257812 -1.582031 1.375 -1.375 C 1.488281 -1.175781 1.644531 -1.019531 1.84375 -0.90625 C 2.039062 -0.800781 2.269531 -0.75 2.53125 -0.75 C 2.945312 -0.75 3.296875 -0.910156 3.578125 -1.234375 L 4.1875 -0.671875 C 3.988281 -0.429688 3.742188 -0.242188 3.453125 -0.109375 C 3.160156 0.015625 2.832031 0.078125 2.46875 0.078125 Z M 2.46875 0.078125 "/></g></g></g></g><g fill="#000000" fill-opacity="1"><g transform="translate(4.483368, 5.917826)"><g><path d="M 2.5 0.078125 C 2.070312 0.078125 1.679688 -0.015625 1.328125 -0.203125 C 0.984375 -0.390625 0.710938 -0.644531 0.515625 -0.96875 C 0.328125 -1.300781 0.234375 -1.671875 0.234375 -2.078125 C 0.234375 -2.484375 0.328125 -2.847656 0.515625 -3.171875 C 0.710938 -3.492188 0.984375 -3.75 1.328125 -3.9375 C 1.679688 -4.125 2.070312 -4.21875 2.5 -4.21875 C 2.925781 -4.21875 3.3125 -4.125 3.65625 -3.9375 C 4 -3.75 4.269531 -3.492188 4.46875 -3.171875 C 4.664062 -2.847656 4.765625 -2.484375 4.765625 -2.078125 C 4.765625 -1.671875 4.664062 -1.300781 4.46875 -0.96875 C 4.269531 -0.644531 4 -0.390625 3.65625 -0.203125 C 3.3125 -0.015625 2.925781 0.078125 2.5 0.078125 Z M 2.5 -0.75 C 2.738281 -0.75 2.957031 -0.800781 3.15625 -0.90625 C 3.351562 -1.019531 3.507812 -1.175781 3.625 -1.375 C 3.738281 -1.582031 3.796875 -1.816406 3.796875 -2.078125 C 3.796875 -2.328125 3.738281 -2.550781 3.625 -2.75 C 3.507812 -2.957031 3.351562 -3.117188 3.15625 -3.234375 C 2.957031 -3.347656 2.738281 -3.40625 2.5 -3.40625 C 2.25 -3.40625 2.023438 -3.347656 1.828125 -3.234375 C 1.640625 -3.117188 1.488281 -2.957031 1.375 -2.75 C 1.257812 -2.550781 1.203125 -2.328125 1.203125 -2.078125 C 1.203125 -1.816406 1.257812 -1.582031 1.375 -1.375 C 1.488281 -1.175781 1.640625 -1.019531 1.828125 -0.90625 C 2.023438 -0.800781 2.25 -0.75 2.5 -0.75 Z M 2.5 -0.75 "/></g></g></g><g fill="#000000" fill-opacity="1"><g transform="translate(9.423741, 5.917826)"><g><path d="M 0.484375 -4.140625 L 2.375 -4.140625 C 2.820312 -4.140625 3.21875 -4.050781 3.5625 -3.875 C 3.914062 -3.707031 4.1875 -3.46875 4.375 -3.15625 C 4.5625 -2.84375 4.65625 -2.484375 4.65625 -2.078125 C 4.65625 -1.660156 4.5625 -1.296875 4.375 -0.984375 C 4.1875 -0.671875 3.914062 -0.425781 3.5625 -0.25 C 3.21875 -0.0820312 2.820312 0 2.375 0 L 0.484375 0 Z M 2.328125 -0.78125 C 2.742188 -0.78125 3.070312 -0.894531 3.3125 -1.125 C 3.5625 -1.363281 3.6875 -1.679688 3.6875 -2.078125 C 3.6875 -2.472656 3.5625 -2.785156 3.3125 -3.015625 C 3.070312 -3.242188 2.742188 -3.359375 2.328125 -3.359375 L 1.453125 -3.359375 L 1.453125 -0.78125 Z M 2.328125 -0.78125 "/></g></g></g><g fill="#000000" fill-opacity="1"><g transform="translate(14.257486, 5.917826)"><g><path d="M 3.703125 -0.765625 L 3.703125 0 L 0.484375 0 L 0.484375 -4.140625 L 3.625 -4.140625 L 3.625 -3.375 L 1.4375 -3.375 L 1.4375 -2.46875 L 3.375 -2.46875 L 3.375 -1.734375 L 1.4375 -1.734375 L 1.4375 -0.765625 Z M 3.703125 -0.765625 "/></g></g></g><g fill="#000000" fill-opacity="1"><g transform="translate(18.113817, 5.917826)"><g><path d="M 6.75 -4.140625 L 5.40625 0 L 4.375 0 L 3.453125 -2.8125 L 2.515625 0 L 1.5 0 L 0.125 -4.140625 L 1.125 -4.140625 L 2.0625 -1.234375 L 3.03125 -4.140625 L 3.921875 -4.140625 L 4.875 -1.203125 L 5.84375 -4.140625 Z M 6.75 -4.140625 "/></g></g></g><g fill="#000000" fill-opacity="1"><g transform="translate(24.854996, 5.917826)"><g><path d="M 0.484375 -4.140625 L 1.453125 -4.140625 L 1.453125 0 L 0.484375 0 Z M 0.484375 -4.140625 "/></g></g></g><g fill="#000000" fill-opacity="1"><g transform="translate(26.738733, 5.917826)"><g><path d="M 1.34375 -3.359375 L 0.03125 -3.359375 L 0.03125 -4.140625 L 3.640625 -4.140625 L 3.640625 -3.359375 L 2.3125 -3.359375 L 2.3125 0 L 1.34375 0 Z M 1.34375 -3.359375 "/></g></g></g><g fill="#000000" fill-opacity="1"><g transform="translate(30.340347, 5.917826)"><g><path d="M 4.296875 -4.140625 L 4.296875 0 L 3.328125 0 L 3.328125 -1.703125 L 1.453125 -1.703125 L 1.453125 0 L 0.484375 0 L 0.484375 -4.140625 L 1.453125 -4.140625 L 1.453125 -2.515625 L 3.328125 -2.515625 L 3.328125 -4.140625 Z M 4.296875 -4.140625 "/></g></g></g><g fill="#000000" fill-opacity="1"><g transform="translate(35.067467, 5.917826)"><g><path d="M 1.859375 0.078125 C 1.523438 0.078125 1.203125 0.03125 0.890625 -0.0625 C 0.585938 -0.15625 0.347656 -0.269531 0.171875 -0.40625 L 0.484375 -1.125 C 0.671875 -1 0.882812 -0.894531 1.125 -0.8125 C 1.375 -0.738281 1.617188 -0.703125 1.859375 -0.703125 C 2.128906 -0.703125 2.328125 -0.738281 2.453125 -0.8125 C 2.585938 -0.894531 2.65625 -1.003906 2.65625 -1.140625 C 2.65625 -1.242188 2.613281 -1.328125 2.53125 -1.390625 C 2.457031 -1.453125 2.359375 -1.503906 2.234375 -1.546875 C 2.117188 -1.585938 1.960938 -1.628906 1.765625 -1.671875 C 1.441406 -1.742188 1.179688 -1.816406 0.984375 -1.890625 C 0.785156 -1.972656 0.613281 -2.097656 0.46875 -2.265625 C 0.320312 -2.429688 0.25 -2.648438 0.25 -2.921875 C 0.25 -3.160156 0.3125 -3.378906 0.4375 -3.578125 C 0.570312 -3.773438 0.769531 -3.929688 1.03125 -4.046875 C 1.289062 -4.160156 1.613281 -4.21875 2 -4.21875 C 2.257812 -4.21875 2.515625 -4.1875 2.765625 -4.125 C 3.023438 -4.0625 3.25 -3.96875 3.4375 -3.84375 L 3.140625 -3.125 C 2.753906 -3.34375 2.367188 -3.453125 1.984375 -3.453125 C 1.722656 -3.453125 1.523438 -3.40625 1.390625 -3.3125 C 1.265625 -3.226562 1.203125 -3.113281 1.203125 -2.96875 C 1.203125 -2.832031 1.273438 -2.726562 1.421875 -2.65625 C 1.566406 -2.582031 1.796875 -2.515625 2.109375 -2.453125 C 2.421875 -2.378906 2.675781 -2.300781 2.875 -2.21875 C 3.082031 -2.144531 3.253906 -2.023438 3.390625 -1.859375 C 3.535156 -1.703125 3.609375 -1.488281 3.609375 -1.21875 C 3.609375 -0.976562 3.539062 -0.757812 3.40625 -0.5625 C 3.28125 -0.363281 3.082031 -0.207031 2.8125 -0.09375 C 2.550781 0.0195312 2.234375 0.078125 1.859375 0.078125 Z M 1.859375 0.078125 "/></g></g></g><g fill="#000000" fill-opacity="1"><g transform="translate(38.787554, 5.917826)"><g><path d="M 3.703125 -0.765625 L 3.703125 0 L 0.484375 0 L 0.484375 -4.140625 L 3.625 -4.140625 L 3.625 -3.375 L 1.4375 -3.375 L 1.4375 -2.46875 L 3.375 -2.46875 L 3.375 -1.734375 L 1.4375 -1.734375 L 1.4375 -0.765625 Z M 3.703125 -0.765625 "/></g></g></g><g fill="#000000" fill-opacity="1"><g transform="translate(42.703124, 5.917826)"><g><path d="M 1.34375 -3.359375 L 0.03125 -3.359375 L 0.03125 -4.140625 L 3.640625 -4.140625 L 3.640625 -3.359375 L 2.3125 -3.359375 L 2.3125 0 L 1.34375 0 Z M 1.34375 -3.359375 "/></g></g></g><g fill="#000000" fill-opacity="1"><g transform="translate(46.30474, 5.917826)"><g><path d="M 4.296875 -4.140625 L 4.296875 0 L 3.328125 0 L 3.328125 -1.703125 L 1.453125 -1.703125 L 1.453125 0 L 0.484375 0 L 0.484375 -4.140625 L 1.453125 -4.140625 L 1.453125 -2.515625 L 3.328125 -2.515625 L 3.328125 -4.140625 Z M 4.296875 -4.140625 "/></g></g></g><g fill="#000000" fill-opacity="1"><g transform="translate(51.031857, 5.917826)"><g/></g></g><g fill="#000000" fill-opacity="1"><g transform="translate(52.649028, 5.917826)"><g><path d="M 3.671875 0.078125 L 3.1875 -0.390625 C 2.789062 -0.078125 2.328125 0.078125 1.796875 0.078125 C 1.492188 0.078125 1.222656 0.03125 0.984375 -0.0625 C 0.742188 -0.164062 0.554688 -0.300781 0.421875 -0.46875 C 0.285156 -0.644531 0.21875 -0.84375 0.21875 -1.0625 C 0.21875 -1.320312 0.285156 -1.546875 0.421875 -1.734375 C 0.566406 -1.929688 0.800781 -2.117188 1.125 -2.296875 C 0.976562 -2.453125 0.867188 -2.597656 0.796875 -2.734375 C 0.734375 -2.878906 0.703125 -3.03125 0.703125 -3.1875 C 0.703125 -3.382812 0.753906 -3.554688 0.859375 -3.703125 C 0.960938 -3.859375 1.113281 -3.976562 1.3125 -4.0625 C 1.507812 -4.15625 1.734375 -4.203125 1.984375 -4.203125 C 2.347656 -4.203125 2.640625 -4.113281 2.859375 -3.9375 C 3.078125 -3.769531 3.1875 -3.539062 3.1875 -3.25 C 3.1875 -3.03125 3.117188 -2.835938 2.984375 -2.671875 C 2.859375 -2.503906 2.65625 -2.347656 2.375 -2.203125 L 3.125 -1.5 C 3.21875 -1.6875 3.285156 -1.898438 3.328125 -2.140625 L 4.078125 -1.90625 C 3.992188 -1.539062 3.863281 -1.226562 3.6875 -0.96875 L 4.1875 -0.515625 Z M 1.984375 -3.578125 C 1.847656 -3.578125 1.738281 -3.539062 1.65625 -3.46875 C 1.582031 -3.394531 1.546875 -3.300781 1.546875 -3.1875 C 1.546875 -3.101562 1.566406 -3.023438 1.609375 -2.953125 C 1.648438 -2.878906 1.734375 -2.785156 1.859375 -2.671875 C 2.054688 -2.773438 2.191406 -2.867188 2.265625 -2.953125 C 2.347656 -3.035156 2.390625 -3.128906 2.390625 -3.234375 C 2.390625 -3.328125 2.351562 -3.40625 2.28125 -3.46875 C 2.21875 -3.539062 2.117188 -3.578125 1.984375 -3.578125 Z M 1.859375 -0.65625 C 2.148438 -0.65625 2.410156 -0.734375 2.640625 -0.890625 L 1.640625 -1.828125 C 1.453125 -1.722656 1.316406 -1.617188 1.234375 -1.515625 C 1.160156 -1.410156 1.125 -1.296875 1.125 -1.171875 C 1.125 -1.015625 1.1875 -0.890625 1.3125 -0.796875 C 1.445312 -0.703125 1.628906 -0.65625 1.859375 -0.65625 Z M 1.859375 -0.65625 "/></g></g></g><g fill="#000000" fill-opacity="1"><g transform="translate(56.90225, 5.917826)"><g/></g></g><g fill="#000000" fill-opacity="1"><g transform="translate(58.519421, 5.917826)"><g><path d="M 2.46875 0.078125 C 2.050781 0.078125 1.671875 -0.015625 1.328125 -0.203125 C 0.984375 -0.390625 0.710938 -0.644531 0.515625 -0.96875 C 0.328125 -1.289062 0.234375 -1.660156 0.234375 -2.078125 C 0.234375 -2.484375 0.328125 -2.847656 0.515625 -3.171875 C 0.710938 -3.503906 0.984375 -3.757812 1.328125 -3.9375 C 1.671875 -4.125 2.054688 -4.21875 2.484375 -4.21875 C 2.835938 -4.21875 3.160156 -4.15625 3.453125 -4.03125 C 3.742188 -3.90625 3.988281 -3.722656 4.1875 -3.484375 L 3.578125 -2.90625 C 3.296875 -3.238281 2.945312 -3.40625 2.53125 -3.40625 C 2.269531 -3.40625 2.039062 -3.347656 1.84375 -3.234375 C 1.644531 -3.117188 1.488281 -2.957031 1.375 -2.75 C 1.257812 -2.550781 1.203125 -2.328125 1.203125 -2.078125 C 1.203125 -1.816406 1.257812 -1.582031 1.375 -1.375 C 1.488281 -1.175781 1.644531 -1.019531 1.84375 -0.90625 C 2.039062 -0.800781 2.269531 -0.75 2.53125 -0.75 C 2.945312 -0.75 3.296875 -0.910156 3.578125 -1.234375 L 4.1875 -0.671875 C 3.988281 -0.429688 3.742188 -0.242188 3.453125 -0.109375 C 3.160156 0.015625 2.832031 0.078125 2.46875 0.078125 Z M 2.46875 0.078125 "/></g></g></g><g clip-path="url(#34f3d888e1)"><g fill="#000000" fill-opacity="1"><g transform="translate(62.713406, 5.917826)"><g><path d="M 2.5 0.078125 C 2.070312 0.078125 1.679688 -0.015625 1.328125 -0.203125 C 0.984375 -0.390625 0.710938 -0.644531 0.515625 -0.96875 C 0.328125 -1.300781 0.234375 -1.671875 0.234375 -2.078125 C 0.234375 -2.484375 0.328125 -2.847656 0.515625 -3.171875 C 0.710938 -3.492188 0.984375 -3.75 1.328125 -3.9375 C 1.679688 -4.125 2.070312 -4.21875 2.5 -4.21875 C 2.925781 -4.21875 3.3125 -4.125 3.65625 -3.9375 C 4 -3.75 4.269531 -3.492188 4.46875 -3.171875 C 4.664062 -2.847656 4.765625 -2.484375 4.765625 -2.078125 C 4.765625 -1.671875 4.664062 -1.300781 4.46875 -0.96875 C 4.269531 -0.644531 4 -0.390625 3.65625 -0.203125 C 3.3125 -0.015625 2.925781 0.078125 2.5 0.078125 Z M 2.5 -0.75 C 2.738281 -0.75 2.957031 -0.800781 3.15625 -0.90625 C 3.351562 -1.019531 3.507812 -1.175781 3.625 -1.375 C 3.738281 -1.582031 3.796875 -1.816406 3.796875 -2.078125 C 3.796875 -2.328125 3.738281 -2.550781 3.625 -2.75 C 3.507812 -2.957031 3.351562 -3.117188 3.15625 -3.234375 C 2.957031 -3.347656 2.738281 -3.40625 2.5 -3.40625 C 2.25 -3.40625 2.023438 -3.347656 1.828125 -3.234375 C 1.640625 -3.117188 1.488281 -2.957031 1.375 -2.75 C 1.257812 -2.550781 1.203125 -2.328125 1.203125 -2.078125 C 1.203125 -1.816406 1.257812 -1.582031 1.375 -1.375 C 1.488281 -1.175781 1.640625 -1.019531 1.828125 -0.90625 C 2.023438 -0.800781 2.25 -0.75 2.5 -0.75 Z M 2.5 -0.75 "/></g></g></g></g></g></g><g transform="matrix(1, 0, 0, 1, 18, 20)"><g clip-path="url(#8e48445950)"><g clip-path="url(#46de63f1d5)"><g fill="#000000" fill-opacity="1"><g transform="translate(0.728765, 4.467876)"><g><path d="M 1.453125 -4.125 C 1.671875 -4.125 1.867188 -4.078125 2.046875 -3.984375 C 2.222656 -3.890625 2.359375 -3.765625 2.453125 -3.609375 C 2.554688 -3.453125 2.609375 -3.273438 2.609375 -3.078125 C 2.609375 -2.753906 2.472656 -2.410156 2.203125 -2.046875 C 1.929688 -1.679688 1.539062 -1.265625 1.03125 -0.796875 L 2.140625 -0.796875 C 2.296875 -0.796875 2.421875 -0.828125 2.515625 -0.890625 C 2.609375 -0.953125 2.671875 -1.046875 2.703125 -1.171875 L 2.8125 -1.171875 L 2.59375 0 L 0.125 0 L 0.125 -0.078125 L 0.453125 -0.453125 C 0.710938 -0.742188 0.929688 -1.015625 1.109375 -1.265625 C 1.253906 -1.472656 1.367188 -1.640625 1.453125 -1.765625 C 1.535156 -1.890625 1.601562 -2.03125 1.65625 -2.1875 C 1.71875 -2.34375 1.75 -2.503906 1.75 -2.671875 C 1.75 -2.910156 1.675781 -3.101562 1.53125 -3.25 C 1.394531 -3.394531 1.222656 -3.46875 1.015625 -3.46875 C 0.859375 -3.46875 0.710938 -3.421875 0.578125 -3.328125 C 0.453125 -3.242188 0.359375 -3.125 0.296875 -2.96875 L 0.1875 -3 C 0.382812 -3.75 0.804688 -4.125 1.453125 -4.125 Z M 1.453125 -4.125 "/></g></g></g></g><g clip-path="url(#0745f53043)"><g fill="#000000" fill-opacity="1"><g transform="translate(3.596161, 4.467876)"><g><path d="M 1.546875 -4.125 C 1.773438 -4.125 1.976562 -4.082031 2.15625 -4 C 2.332031 -3.925781 2.472656 -3.816406 2.578125 -3.671875 C 2.679688 -3.535156 2.734375 -3.378906 2.734375 -3.203125 C 2.734375 -3.015625 2.671875 -2.84375 2.546875 -2.6875 C 2.429688 -2.539062 2.253906 -2.410156 2.015625 -2.296875 C 2.546875 -1.921875 2.8125 -1.507812 2.8125 -1.0625 C 2.8125 -0.851562 2.753906 -0.660156 2.640625 -0.484375 C 2.523438 -0.304688 2.359375 -0.164062 2.140625 -0.0625 C 1.929688 0.03125 1.691406 0.078125 1.421875 0.078125 C 1.179688 0.078125 0.960938 0.0351562 0.765625 -0.046875 C 0.566406 -0.140625 0.410156 -0.265625 0.296875 -0.421875 C 0.191406 -0.578125 0.140625 -0.753906 0.140625 -0.953125 C 0.140625 -1.160156 0.207031 -1.347656 0.34375 -1.515625 C 0.488281 -1.691406 0.703125 -1.832031 0.984375 -1.9375 C 0.703125 -2.144531 0.5 -2.34375 0.375 -2.53125 C 0.257812 -2.726562 0.203125 -2.921875 0.203125 -3.109375 C 0.203125 -3.335938 0.265625 -3.523438 0.390625 -3.671875 C 0.523438 -3.828125 0.691406 -3.941406 0.890625 -4.015625 C 1.097656 -4.085938 1.316406 -4.125 1.546875 -4.125 Z M 0.984375 -3.421875 C 0.984375 -3.285156 1.019531 -3.160156 1.09375 -3.046875 C 1.175781 -2.929688 1.269531 -2.832031 1.375 -2.75 C 1.488281 -2.664062 1.628906 -2.566406 1.796875 -2.453125 C 1.867188 -2.546875 1.921875 -2.644531 1.953125 -2.75 C 1.984375 -2.851562 2 -3.003906 2 -3.203125 C 2 -3.453125 1.957031 -3.632812 1.875 -3.75 C 1.800781 -3.875 1.675781 -3.9375 1.5 -3.9375 C 1.351562 -3.9375 1.226562 -3.882812 1.125 -3.78125 C 1.03125 -3.6875 0.984375 -3.566406 0.984375 -3.421875 Z M 0.890625 -0.921875 C 0.890625 -0.648438 0.9375 -0.445312 1.03125 -0.3125 C 1.132812 -0.175781 1.273438 -0.109375 1.453125 -0.109375 C 1.617188 -0.109375 1.753906 -0.160156 1.859375 -0.265625 C 1.960938 -0.378906 2.015625 -0.519531 2.015625 -0.6875 C 2.015625 -0.894531 1.941406 -1.085938 1.796875 -1.265625 C 1.660156 -1.441406 1.457031 -1.625 1.1875 -1.8125 C 0.988281 -1.664062 0.890625 -1.367188 0.890625 -0.921875 Z M 0.890625 -0.921875 "/></g></g></g></g><g fill="#000000" fill-opacity="1"><g transform="translate(6.463557, 4.467876)"><g/></g></g><g clip-path="url(#c3f0caff32)"><g fill="#000000" fill-opacity="1"><g transform="translate(7.852912, 4.467876)"><g><path d="M 3.4375 -2.953125 L 3.328125 -2.953125 C 3.296875 -3.265625 3.195312 -3.488281 3.03125 -3.625 C 2.875 -3.769531 2.632812 -3.84375 2.3125 -3.84375 L 1.59375 -3.84375 L 1.59375 -2.15625 L 1.75 -2.15625 C 2.007812 -2.15625 2.207031 -2.226562 2.34375 -2.375 C 2.476562 -2.519531 2.550781 -2.726562 2.5625 -3 L 2.6875 -3 L 2.6875 -1.03125 L 2.5625 -1.03125 C 2.550781 -1.332031 2.472656 -1.554688 2.328125 -1.703125 C 2.191406 -1.859375 1.992188 -1.9375 1.734375 -1.9375 L 1.59375 -1.9375 L 1.59375 -0.609375 C 1.59375 -0.460938 1.609375 -0.351562 1.640625 -0.28125 C 1.679688 -0.21875 1.742188 -0.171875 1.828125 -0.140625 C 1.910156 -0.117188 2.035156 -0.109375 2.203125 -0.109375 L 2.203125 0 L 0.078125 0 L 0.078125 -0.109375 C 0.234375 -0.109375 0.351562 -0.117188 0.4375 -0.140625 C 0.519531 -0.171875 0.578125 -0.21875 0.609375 -0.28125 C 0.640625 -0.351562 0.65625 -0.460938 0.65625 -0.609375 L 0.65625 -3.4375 C 0.65625 -3.59375 0.632812 -3.707031 0.59375 -3.78125 C 0.550781 -3.851562 0.488281 -3.898438 0.40625 -3.921875 C 0.332031 -3.941406 0.222656 -3.953125 0.078125 -3.953125 L 0.078125 -4.0625 L 3.4375 -4.0625 Z M 3.4375 -2.953125 "/></g></g></g></g><g clip-path="url(#e9983c78d6)"><g fill="#000000" fill-opacity="1"><g transform="translate(11.335173, 4.467876)"><g><path d="M 3.53125 -2.90625 L 3.421875 -2.90625 C 3.367188 -3.207031 3.257812 -3.4375 3.09375 -3.59375 C 2.925781 -3.757812 2.707031 -3.84375 2.4375 -3.84375 L 1.640625 -3.84375 L 1.640625 -2.171875 L 1.765625 -2.171875 C 1.910156 -2.171875 2.03125 -2.195312 2.125 -2.25 C 2.226562 -2.300781 2.3125 -2.394531 2.375 -2.53125 C 2.445312 -2.664062 2.5 -2.859375 2.53125 -3.109375 L 2.640625 -3.109375 L 2.640625 -1.046875 L 2.53125 -1.046875 C 2.488281 -1.398438 2.40625 -1.640625 2.28125 -1.765625 C 2.15625 -1.890625 1.992188 -1.953125 1.796875 -1.953125 L 1.640625 -1.953125 L 1.640625 -0.65625 C 1.640625 -0.488281 1.664062 -0.375 1.71875 -0.3125 C 1.769531 -0.25 1.867188 -0.21875 2.015625 -0.21875 L 2.4375 -0.21875 C 2.78125 -0.21875 3.050781 -0.3125 3.25 -0.5 C 3.445312 -0.6875 3.597656 -0.9375 3.703125 -1.25 L 3.8125 -1.25 L 3.625 0 L 0.109375 0 L 0.109375 -0.109375 L 0.234375 -0.109375 C 0.378906 -0.109375 0.484375 -0.128906 0.546875 -0.171875 C 0.609375 -0.210938 0.648438 -0.265625 0.671875 -0.328125 C 0.691406 -0.398438 0.703125 -0.492188 0.703125 -0.609375 L 0.703125 -3.46875 C 0.703125 -3.65625 0.65625 -3.78125 0.5625 -3.84375 C 0.476562 -3.914062 0.328125 -3.953125 0.109375 -3.953125 L 0.109375 -4.0625 L 3.53125 -4.0625 Z M 3.53125 -2.90625 "/></g></g></g></g><g clip-path="url(#64236c027a)"><g fill="#000000" fill-opacity="1"><g transform="translate(15.189901, 4.467876)"><g><path d="M 3.625 -3.0625 C 3.625 -2.832031 3.539062 -2.632812 3.375 -2.46875 C 3.207031 -2.3125 2.972656 -2.203125 2.671875 -2.140625 L 2.671875 -2.125 C 3.015625 -2.070312 3.285156 -1.953125 3.484375 -1.765625 C 3.691406 -1.585938 3.796875 -1.363281 3.796875 -1.09375 C 3.796875 -0.863281 3.726562 -0.664062 3.59375 -0.5 C 3.457031 -0.332031 3.273438 -0.207031 3.046875 -0.125 C 2.828125 -0.0390625 2.582031 0 2.3125 0 L 0.09375 0 L 0.09375 -0.109375 C 0.238281 -0.109375 0.347656 -0.117188 0.421875 -0.140625 C 0.492188 -0.160156 0.546875 -0.207031 0.578125 -0.28125 C 0.617188 -0.351562 0.640625 -0.460938 0.640625 -0.609375 L 0.640625 -3.4375 C 0.640625 -3.582031 0.625 -3.691406 0.59375 -3.765625 C 0.5625 -3.835938 0.507812 -3.882812 0.4375 -3.90625 C 0.363281 -3.9375 0.257812 -3.953125 0.125 -3.953125 L 0.125 -4.0625 L 2.234375 -4.0625 C 2.441406 -4.0625 2.648438 -4.03125 2.859375 -3.96875 C 3.078125 -3.90625 3.257812 -3.796875 3.40625 -3.640625 C 3.550781 -3.492188 3.625 -3.300781 3.625 -3.0625 Z M 1.75 -2.21875 C 2.070312 -2.21875 2.300781 -2.296875 2.4375 -2.453125 C 2.570312 -2.617188 2.640625 -2.8125 2.640625 -3.03125 C 2.640625 -3.226562 2.578125 -3.410156 2.453125 -3.578125 C 2.335938 -3.753906 2.140625 -3.84375 1.859375 -3.84375 L 1.59375 -3.84375 L 1.59375 -2.21875 Z M 1.9375 -0.203125 C 2.175781 -0.203125 2.367188 -0.28125 2.515625 -0.4375 C 2.671875 -0.59375 2.75 -0.796875 2.75 -1.046875 C 2.75 -1.316406 2.664062 -1.539062 2.5 -1.71875 C 2.332031 -1.90625 2.070312 -2 1.71875 -2 L 1.59375 -2 L 1.59375 -0.609375 C 1.59375 -0.441406 1.617188 -0.332031 1.671875 -0.28125 C 1.722656 -0.226562 1.8125 -0.203125 1.9375 -0.203125 Z M 1.9375 -0.203125 "/></g></g></g></g><g fill="#000000" fill-opacity="1"><g transform="translate(19.044628, 4.467876)"><g/></g></g><g clip-path="url(#f5d16bd96f)"><g fill="#000000" fill-opacity="1"><g transform="translate(20.433983, 4.467876)"><g><path d="M 1.453125 -4.125 C 1.671875 -4.125 1.867188 -4.078125 2.046875 -3.984375 C 2.222656 -3.890625 2.359375 -3.765625 2.453125 -3.609375 C 2.554688 -3.453125 2.609375 -3.273438 2.609375 -3.078125 C 2.609375 -2.753906 2.472656 -2.410156 2.203125 -2.046875 C 1.929688 -1.679688 1.539062 -1.265625 1.03125 -0.796875 L 2.140625 -0.796875 C 2.296875 -0.796875 2.421875 -0.828125 2.515625 -0.890625 C 2.609375 -0.953125 2.671875 -1.046875 2.703125 -1.171875 L 2.8125 -1.171875 L 2.59375 0 L 0.125 0 L 0.125 -0.078125 L 0.453125 -0.453125 C 0.710938 -0.742188 0.929688 -1.015625 1.109375 -1.265625 C 1.253906 -1.472656 1.367188 -1.640625 1.453125 -1.765625 C 1.535156 -1.890625 1.601562 -2.03125 1.65625 -2.1875 C 1.71875 -2.34375 1.75 -2.503906 1.75 -2.671875 C 1.75 -2.910156 1.675781 -3.101562 1.53125 -3.25 C 1.394531 -3.394531 1.222656 -3.46875 1.015625 -3.46875 C 0.859375 -3.46875 0.710938 -3.421875 0.578125 -3.328125 C 0.453125 -3.242188 0.359375 -3.125 0.296875 -2.96875 L 0.1875 -3 C 0.382812 -3.75 0.804688 -4.125 1.453125 -4.125 Z M 1.453125 -4.125 "/></g></g></g></g><g clip-path="url(#97e90919ba)"><g fill="#000000" fill-opacity="1"><g transform="translate(23.301379, 4.467876)"><g><path d="M 1.484375 -4.125 C 1.703125 -4.125 1.910156 -4.050781 2.109375 -3.90625 C 2.316406 -3.769531 2.484375 -3.546875 2.609375 -3.234375 C 2.742188 -2.921875 2.8125 -2.519531 2.8125 -2.03125 C 2.8125 -1.613281 2.753906 -1.242188 2.640625 -0.921875 C 2.535156 -0.609375 2.378906 -0.363281 2.171875 -0.1875 C 1.972656 -0.0078125 1.738281 0.078125 1.46875 0.078125 C 1.207031 0.078125 0.972656 -0.0078125 0.765625 -0.1875 C 0.566406 -0.363281 0.410156 -0.609375 0.296875 -0.921875 C 0.191406 -1.242188 0.140625 -1.609375 0.140625 -2.015625 C 0.140625 -2.421875 0.195312 -2.78125 0.3125 -3.09375 C 0.425781 -3.414062 0.582031 -3.664062 0.78125 -3.84375 C 0.988281 -4.03125 1.222656 -4.125 1.484375 -4.125 Z M 1.484375 -0.109375 C 1.585938 -0.109375 1.664062 -0.140625 1.71875 -0.203125 C 1.78125 -0.265625 1.828125 -0.378906 1.859375 -0.546875 C 1.890625 -0.710938 1.90625 -0.953125 1.90625 -1.265625 L 1.90625 -2.734375 C 1.90625 -3.066406 1.894531 -3.316406 1.875 -3.484375 C 1.851562 -3.648438 1.8125 -3.765625 1.75 -3.828125 C 1.6875 -3.898438 1.597656 -3.9375 1.484375 -3.9375 C 1.367188 -3.9375 1.28125 -3.894531 1.21875 -3.8125 C 1.15625 -3.738281 1.109375 -3.609375 1.078125 -3.421875 C 1.054688 -3.234375 1.046875 -2.976562 1.046875 -2.65625 L 1.046875 -1.390625 C 1.046875 -1.046875 1.054688 -0.785156 1.078125 -0.609375 C 1.109375 -0.429688 1.15625 -0.300781 1.21875 -0.21875 C 1.28125 -0.144531 1.367188 -0.109375 1.484375 -0.109375 Z M 1.484375 -0.109375 "/></g></g></g></g><g clip-path="url(#4c01e9ed49)"><g fill="#000000" fill-opacity="1"><g transform="translate(26.168776, 4.467876)"><g><path d="M 1.453125 -4.125 C 1.671875 -4.125 1.867188 -4.078125 2.046875 -3.984375 C 2.222656 -3.890625 2.359375 -3.765625 2.453125 -3.609375 C 2.554688 -3.453125 2.609375 -3.273438 2.609375 -3.078125 C 2.609375 -2.753906 2.472656 -2.410156 2.203125 -2.046875 C 1.929688 -1.679688 1.539062 -1.265625 1.03125 -0.796875 L 2.140625 -0.796875 C 2.296875 -0.796875 2.421875 -0.828125 2.515625 -0.890625 C 2.609375 -0.953125 2.671875 -1.046875 2.703125 -1.171875 L 2.8125 -1.171875 L 2.59375 0 L 0.125 0 L 0.125 -0.078125 L 0.453125 -0.453125 C 0.710938 -0.742188 0.929688 -1.015625 1.109375 -1.265625 C 1.253906 -1.472656 1.367188 -1.640625 1.453125 -1.765625 C 1.535156 -1.890625 1.601562 -2.03125 1.65625 -2.1875 C 1.71875 -2.34375 1.75 -2.503906 1.75 -2.671875 C 1.75 -2.910156 1.675781 -3.101562 1.53125 -3.25 C 1.394531 -3.394531 1.222656 -3.46875 1.015625 -3.46875 C 0.859375 -3.46875 0.710938 -3.421875 0.578125 -3.328125 C 0.453125 -3.242188 0.359375 -3.125 0.296875 -2.96875 L 0.1875 -3 C 0.382812 -3.75 0.804688 -4.125 1.453125 -4.125 Z M 1.453125 -4.125 "/></g></g></g></g><g clip-path="url(#25a3376302)"><g fill="#000000" fill-opacity="1"><g transform="translate(29.036173, 4.467876)"><g><path d="M 2.84375 -4.125 L 2.84375 -4.015625 C 2.382812 -3.929688 2.003906 -3.75 1.703125 -3.46875 C 1.410156 -3.195312 1.222656 -2.84375 1.140625 -2.40625 C 1.328125 -2.507812 1.53125 -2.5625 1.75 -2.5625 C 1.957031 -2.5625 2.144531 -2.507812 2.3125 -2.40625 C 2.476562 -2.300781 2.601562 -2.15625 2.6875 -1.96875 C 2.78125 -1.789062 2.828125 -1.585938 2.828125 -1.359375 C 2.828125 -1.078125 2.769531 -0.828125 2.65625 -0.609375 C 2.550781 -0.398438 2.398438 -0.234375 2.203125 -0.109375 C 2.003906 0.015625 1.78125 0.078125 1.53125 0.078125 C 1.269531 0.078125 1.035156 0.00390625 0.828125 -0.140625 C 0.617188 -0.285156 0.453125 -0.488281 0.328125 -0.75 C 0.203125 -1.007812 0.140625 -1.300781 0.140625 -1.625 C 0.140625 -1.976562 0.234375 -2.34375 0.421875 -2.71875 C 0.609375 -3.101562 0.90625 -3.425781 1.3125 -3.6875 C 1.71875 -3.957031 2.226562 -4.101562 2.84375 -4.125 Z M 1.09375 -2.15625 C 1.070312 -2.007812 1.0625 -1.835938 1.0625 -1.640625 C 1.0625 -1.234375 1.097656 -0.875 1.171875 -0.5625 C 1.253906 -0.257812 1.394531 -0.109375 1.59375 -0.109375 C 1.738281 -0.109375 1.835938 -0.171875 1.890625 -0.296875 C 1.953125 -0.429688 1.984375 -0.625 1.984375 -0.875 C 1.984375 -1.375 1.929688 -1.726562 1.828125 -1.9375 C 1.734375 -2.144531 1.585938 -2.25 1.390625 -2.25 C 1.285156 -2.25 1.1875 -2.21875 1.09375 -2.15625 Z M 1.09375 -2.15625 "/></g></g></g></g></g></g><g transform="matrix(1, 0, 0, 1, 13, 33)"><g clip-path="url(#08cfdb9cfb)"><g clip-path="url(#f0329c37aa)"><g fill="#000000" fill-opacity="1"><g transform="translate(0.753983, 3.219057)"><g><path d="M 1.546875 -0.15625 L 1.546875 0 L 0.28125 0 L 0.28125 -1.765625 L 1.5 -1.765625 L 1.5 -1.609375 L 0.46875 -1.609375 L 0.46875 -0.984375 L 1.390625 -0.984375 L 1.390625 -0.8125 L 0.46875 -0.8125 L 0.46875 -0.15625 Z M 1.546875 -0.15625 "/></g></g></g></g><g clip-path="url(#b5078f8d4a)"><g fill="#000000" fill-opacity="1"><g transform="translate(2.422425, 3.219057)"><g><path d="M 1.90625 -1.34375 C 2.070312 -1.34375 2.203125 -1.289062 2.296875 -1.1875 C 2.398438 -1.09375 2.453125 -0.953125 2.453125 -0.765625 L 2.453125 0 L 2.265625 0 L 2.265625 -0.75 C 2.265625 -0.894531 2.226562 -1 2.15625 -1.0625 C 2.09375 -1.132812 2.003906 -1.171875 1.890625 -1.171875 C 1.742188 -1.171875 1.628906 -1.128906 1.546875 -1.046875 C 1.472656 -0.960938 1.4375 -0.847656 1.4375 -0.703125 L 1.4375 0 L 1.265625 0 L 1.265625 -0.75 C 1.265625 -0.894531 1.226562 -1 1.15625 -1.0625 C 1.09375 -1.132812 1 -1.171875 0.875 -1.171875 C 0.738281 -1.171875 0.628906 -1.128906 0.546875 -1.046875 C 0.472656 -0.960938 0.4375 -0.847656 0.4375 -0.703125 L 0.4375 0 L 0.25 0 L 0.25 -1.328125 L 0.421875 -1.328125 L 0.421875 -1.09375 C 0.472656 -1.164062 0.539062 -1.222656 0.625 -1.265625 C 0.707031 -1.316406 0.800781 -1.34375 0.90625 -1.34375 C 1.019531 -1.34375 1.117188 -1.316406 1.203125 -1.265625 C 1.285156 -1.222656 1.347656 -1.15625 1.390625 -1.0625 C 1.429688 -1.144531 1.5 -1.210938 1.59375 -1.265625 C 1.6875 -1.316406 1.789062 -1.34375 1.90625 -1.34375 Z M 1.90625 -1.34375 "/></g></g></g></g><g clip-path="url(#d9ae7ca7ac)"><g fill="#000000" fill-opacity="1"><g transform="translate(5.083328, 3.219057)"><g><path d="M 0.71875 -1.34375 C 0.894531 -1.34375 1.023438 -1.296875 1.109375 -1.203125 C 1.203125 -1.117188 1.25 -0.992188 1.25 -0.828125 L 1.25 0 L 1.078125 0 L 1.078125 -0.203125 C 1.035156 -0.140625 0.972656 -0.0859375 0.890625 -0.046875 C 0.816406 -0.00390625 0.726562 0.015625 0.625 0.015625 C 0.476562 0.015625 0.359375 -0.0195312 0.265625 -0.09375 C 0.179688 -0.164062 0.140625 -0.257812 0.140625 -0.375 C 0.140625 -0.488281 0.179688 -0.578125 0.265625 -0.640625 C 0.347656 -0.710938 0.476562 -0.75 0.65625 -0.75 L 1.078125 -0.75 L 1.078125 -0.828125 C 1.078125 -0.941406 1.046875 -1.03125 0.984375 -1.09375 C 0.921875 -1.15625 0.828125 -1.1875 0.703125 -1.1875 C 0.617188 -1.1875 0.535156 -1.171875 0.453125 -1.140625 C 0.378906 -1.109375 0.3125 -1.070312 0.25 -1.03125 L 0.171875 -1.15625 C 0.242188 -1.21875 0.328125 -1.265625 0.421875 -1.296875 C 0.515625 -1.328125 0.613281 -1.34375 0.71875 -1.34375 Z M 0.65625 -0.125 C 0.757812 -0.125 0.84375 -0.144531 0.90625 -0.1875 C 0.976562 -0.238281 1.035156 -0.3125 1.078125 -0.40625 L 1.078125 -0.625 L 0.65625 -0.625 C 0.425781 -0.625 0.3125 -0.539062 0.3125 -0.375 C 0.3125 -0.300781 0.34375 -0.238281 0.40625 -0.1875 C 0.46875 -0.144531 0.550781 -0.125 0.65625 -0.125 Z M 0.65625 -0.125 "/></g></g></g></g><g clip-path="url(#4d2e85c699)"><g fill="#000000" fill-opacity="1"><g transform="translate(6.551759, 3.219057)"><g><path d="M 0.25 -1.328125 L 0.4375 -1.328125 L 0.4375 0 L 0.25 0 Z M 0.328125 -1.625 C 0.296875 -1.625 0.265625 -1.632812 0.234375 -1.65625 C 0.210938 -1.6875 0.203125 -1.71875 0.203125 -1.75 C 0.203125 -1.78125 0.210938 -1.804688 0.234375 -1.828125 C 0.265625 -1.859375 0.296875 -1.875 0.328125 -1.875 C 0.367188 -1.875 0.398438 -1.863281 0.421875 -1.84375 C 0.453125 -1.820312 0.46875 -1.789062 0.46875 -1.75 C 0.46875 -1.71875 0.453125 -1.6875 0.421875 -1.65625 C 0.398438 -1.632812 0.367188 -1.625 0.328125 -1.625 Z M 0.328125 -1.625 "/></g></g></g></g><g clip-path="url(#f1adee74f3)"><g fill="#000000" fill-opacity="1"><g transform="translate(7.207487, 3.219057)"><g><path d="M 0.25 -1.875 L 0.4375 -1.875 L 0.4375 0 L 0.25 0 Z M 0.25 -1.875 "/></g></g></g></g><g clip-path="url(#680561565d)"><g fill="#000000" fill-opacity="1"><g transform="translate(7.863214, 3.219057)"><g><path d="M 0.265625 -1.0625 C 0.234375 -1.0625 0.203125 -1.070312 0.171875 -1.09375 C 0.148438 -1.125 0.140625 -1.160156 0.140625 -1.203125 C 0.140625 -1.242188 0.148438 -1.273438 0.171875 -1.296875 C 0.203125 -1.328125 0.234375 -1.34375 0.265625 -1.34375 C 0.304688 -1.34375 0.335938 -1.328125 0.359375 -1.296875 C 0.390625 -1.273438 0.40625 -1.242188 0.40625 -1.203125 C 0.40625 -1.160156 0.390625 -1.125 0.359375 -1.09375 C 0.335938 -1.070312 0.304688 -1.0625 0.265625 -1.0625 Z M 0.265625 0.015625 C 0.234375 0.015625 0.203125 0.00390625 0.171875 -0.015625 C 0.148438 -0.046875 0.140625 -0.0820312 0.140625 -0.125 C 0.140625 -0.164062 0.148438 -0.195312 0.171875 -0.21875 C 0.203125 -0.25 0.234375 -0.265625 0.265625 -0.265625 C 0.304688 -0.265625 0.335938 -0.25 0.359375 -0.21875 C 0.390625 -0.195312 0.40625 -0.164062 0.40625 -0.125 C 0.40625 -0.0820312 0.390625 -0.046875 0.359375 -0.015625 C 0.335938 0.00390625 0.304688 0.015625 0.265625 0.015625 Z M 0.265625 0.015625 "/></g></g></g></g><g clip-path="url(#b213f12dd4)"><g fill="#000000" fill-opacity="1"><g transform="translate(8.374629, 3.219057)"><g/></g></g></g><g clip-path="url(#cd2d5e701b)"><g fill="#000000" fill-opacity="1"><g transform="translate(9.012634, 3.219057)"><g><path d="M 0.25 -1.328125 L 0.4375 -1.328125 L 0.4375 0 L 0.25 0 Z M 0.328125 -1.625 C 0.296875 -1.625 0.265625 -1.632812 0.234375 -1.65625 C 0.210938 -1.6875 0.203125 -1.71875 0.203125 -1.75 C 0.203125 -1.78125 0.210938 -1.804688 0.234375 -1.828125 C 0.265625 -1.859375 0.296875 -1.875 0.328125 -1.875 C 0.367188 -1.875 0.398438 -1.863281 0.421875 -1.84375 C 0.453125 -1.820312 0.46875 -1.789062 0.46875 -1.75 C 0.46875 -1.71875 0.453125 -1.6875 0.421875 -1.65625 C 0.398438 -1.632812 0.367188 -1.625 0.328125 -1.625 Z M 0.328125 -1.625 "/></g></g></g></g><g clip-path="url(#0fd024d48e)"><g fill="#000000" fill-opacity="1"><g transform="translate(9.668362, 3.219057)"><g><path d="M 0.921875 -1.34375 C 1.085938 -1.34375 1.21875 -1.289062 1.3125 -1.1875 C 1.414062 -1.09375 1.46875 -0.953125 1.46875 -0.765625 L 1.46875 0 L 1.296875 0 L 1.296875 -0.75 C 1.296875 -0.894531 1.257812 -1 1.1875 -1.0625 C 1.125 -1.132812 1.023438 -1.171875 0.890625 -1.171875 C 0.753906 -1.171875 0.644531 -1.128906 0.5625 -1.046875 C 0.476562 -0.960938 0.4375 -0.847656 0.4375 -0.703125 L 0.4375 0 L 0.25 0 L 0.25 -1.328125 L 0.421875 -1.328125 L 0.421875 -1.078125 C 0.472656 -1.160156 0.539062 -1.222656 0.625 -1.265625 C 0.707031 -1.316406 0.804688 -1.34375 0.921875 -1.34375 Z M 0.921875 -1.34375 "/></g></g></g></g><g clip-path="url(#4f21f3c042)"><g fill="#000000" fill-opacity="1"><g transform="translate(11.357057, 3.219057)"><g><path d="M 0.6875 -1.734375 C 0.613281 -1.734375 0.554688 -1.710938 0.515625 -1.671875 C 0.472656 -1.628906 0.453125 -1.566406 0.453125 -1.484375 L 0.453125 -1.328125 L 0.859375 -1.328125 L 0.859375 -1.171875 L 0.453125 -1.171875 L 0.453125 0 L 0.28125 0 L 0.28125 -1.171875 L 0.046875 -1.171875 L 0.046875 -1.328125 L 0.28125 -1.328125 L 0.28125 -1.5 C 0.28125 -1.613281 0.3125 -1.707031 0.375 -1.78125 C 0.445312 -1.851562 0.550781 -1.890625 0.6875 -1.890625 C 0.738281 -1.890625 0.785156 -1.878906 0.828125 -1.859375 C 0.878906 -1.847656 0.921875 -1.832031 0.953125 -1.8125 L 0.890625 -1.671875 C 0.835938 -1.710938 0.769531 -1.734375 0.6875 -1.734375 Z M 0.6875 -1.734375 "/></g></g></g></g><g clip-path="url(#f38e8fd715)"><g fill="#000000" fill-opacity="1"><g transform="translate(12.16722, 3.219057)"><g><path d="M 0.796875 0.015625 C 0.671875 0.015625 0.554688 -0.0078125 0.453125 -0.0625 C 0.347656 -0.125 0.265625 -0.207031 0.203125 -0.3125 C 0.140625 -0.414062 0.109375 -0.535156 0.109375 -0.671875 C 0.109375 -0.796875 0.140625 -0.910156 0.203125 -1.015625 C 0.265625 -1.117188 0.347656 -1.195312 0.453125 -1.25 C 0.554688 -1.3125 0.671875 -1.34375 0.796875 -1.34375 C 0.921875 -1.34375 1.035156 -1.3125 1.140625 -1.25 C 1.242188 -1.195312 1.320312 -1.117188 1.375 -1.015625 C 1.4375 -0.910156 1.46875 -0.796875 1.46875 -0.671875 C 1.46875 -0.535156 1.4375 -0.414062 1.375 -0.3125 C 1.320312 -0.207031 1.242188 -0.125 1.140625 -0.0625 C 1.035156 -0.0078125 0.921875 0.015625 0.796875 0.015625 Z M 0.796875 -0.140625 C 0.890625 -0.140625 0.972656 -0.160156 1.046875 -0.203125 C 1.117188 -0.253906 1.175781 -0.316406 1.21875 -0.390625 C 1.257812 -0.472656 1.28125 -0.566406 1.28125 -0.671875 C 1.28125 -0.765625 1.257812 -0.851562 1.21875 -0.9375 C 1.175781 -1.019531 1.117188 -1.082031 1.046875 -1.125 C 0.972656 -1.164062 0.890625 -1.1875 0.796875 -1.1875 C 0.703125 -1.1875 0.613281 -1.164062 0.53125 -1.125 C 0.457031 -1.082031 0.398438 -1.019531 0.359375 -0.9375 C 0.316406 -0.851562 0.296875 -0.765625 0.296875 -0.671875 C 0.296875 -0.566406 0.316406 -0.472656 0.359375 -0.390625 C 0.398438 -0.316406 0.457031 -0.253906 0.53125 -0.203125 C 0.613281 -0.160156 0.703125 -0.140625 0.796875 -0.140625 Z M 0.796875 -0.140625 "/></g></g></g></g><g clip-path="url(#c711f0ef14)"><g fill="#000000" fill-opacity="1"><g transform="translate(13.729327, 3.219057)"><g><path d="M 1.3125 -1.78125 C 1.539062 -1.78125 1.742188 -1.734375 1.921875 -1.640625 C 2.097656 -1.546875 2.234375 -1.414062 2.328125 -1.25 C 2.429688 -1.082031 2.484375 -0.890625 2.484375 -0.671875 C 2.484375 -0.453125 2.445312 -0.28125 2.375 -0.15625 C 2.300781 -0.0390625 2.195312 0.015625 2.0625 0.015625 C 1.976562 0.015625 1.910156 -0.0078125 1.859375 -0.0625 C 1.804688 -0.113281 1.78125 -0.179688 1.78125 -0.265625 C 1.726562 -0.171875 1.65625 -0.0976562 1.5625 -0.046875 C 1.476562 -0.00390625 1.378906 0.015625 1.265625 0.015625 C 1.148438 0.015625 1.046875 -0.0078125 0.953125 -0.0625 C 0.859375 -0.125 0.78125 -0.203125 0.71875 -0.296875 C 0.664062 -0.398438 0.640625 -0.515625 0.640625 -0.640625 C 0.640625 -0.765625 0.664062 -0.875 0.71875 -0.96875 C 0.78125 -1.070312 0.859375 -1.148438 0.953125 -1.203125 C 1.046875 -1.265625 1.148438 -1.296875 1.265625 -1.296875 C 1.378906 -1.296875 1.476562 -1.269531 1.5625 -1.21875 C 1.65625 -1.175781 1.726562 -1.113281 1.78125 -1.03125 L 1.78125 -1.28125 L 1.9375 -1.28125 L 1.9375 -0.328125 C 1.9375 -0.253906 1.953125 -0.203125 1.984375 -0.171875 C 2.015625 -0.140625 2.050781 -0.125 2.09375 -0.125 C 2.175781 -0.125 2.238281 -0.171875 2.28125 -0.265625 C 2.332031 -0.367188 2.359375 -0.503906 2.359375 -0.671875 C 2.359375 -0.867188 2.3125 -1.039062 2.21875 -1.1875 C 2.132812 -1.332031 2.015625 -1.445312 1.859375 -1.53125 C 1.703125 -1.613281 1.519531 -1.65625 1.3125 -1.65625 C 1.101562 -1.65625 0.921875 -1.613281 0.765625 -1.53125 C 0.609375 -1.445312 0.484375 -1.328125 0.390625 -1.171875 C 0.304688 -1.015625 0.265625 -0.835938 0.265625 -0.640625 C 0.265625 -0.441406 0.304688 -0.265625 0.390625 -0.109375 C 0.484375 0.046875 0.609375 0.164062 0.765625 0.25 C 0.921875 0.332031 1.097656 0.375 1.296875 0.375 C 1.378906 0.375 1.460938 0.363281 1.546875 0.34375 C 1.640625 0.332031 1.722656 0.304688 1.796875 0.265625 L 1.828125 0.390625 C 1.753906 0.429688 1.671875 0.457031 1.578125 0.46875 C 1.484375 0.488281 1.390625 0.5 1.296875 0.5 C 1.066406 0.5 0.863281 0.453125 0.6875 0.359375 C 0.507812 0.265625 0.367188 0.128906 0.265625 -0.046875 C 0.171875 -0.222656 0.125 -0.421875 0.125 -0.640625 C 0.125 -0.867188 0.175781 -1.066406 0.28125 -1.234375 C 0.382812 -1.410156 0.523438 -1.546875 0.703125 -1.640625 C 0.878906 -1.734375 1.082031 -1.78125 1.3125 -1.78125 Z M 1.296875 -0.140625 C 1.390625 -0.140625 1.472656 -0.160156 1.546875 -0.203125 C 1.617188 -0.242188 1.675781 -0.300781 1.71875 -0.375 C 1.757812 -0.445312 1.78125 -0.535156 1.78125 -0.640625 C 1.78125 -0.742188 1.757812 -0.832031 1.71875 -0.90625 C 1.675781 -0.976562 1.617188 -1.035156 1.546875 -1.078125 C 1.472656 -1.117188 1.390625 -1.140625 1.296875 -1.140625 C 1.203125 -1.140625 1.117188 -1.117188 1.046875 -1.078125 C 0.972656 -1.035156 0.914062 -0.976562 0.875 -0.90625 C 0.832031 -0.832031 0.8125 -0.742188 0.8125 -0.640625 C 0.8125 -0.546875 0.832031 -0.457031 0.875 -0.375 C 0.914062 -0.300781 0.972656 -0.242188 1.046875 -0.203125 C 1.117188 -0.160156 1.203125 -0.140625 1.296875 -0.140625 Z M 1.296875 -0.140625 "/></g></g></g></g><g clip-path="url(#6dcac2f2b0)"><g fill="#000000" fill-opacity="1"><g transform="translate(16.31934, 3.219057)"><g><path d="M 0.796875 0.015625 C 0.671875 0.015625 0.554688 -0.0078125 0.453125 -0.0625 C 0.347656 -0.125 0.265625 -0.207031 0.203125 -0.3125 C 0.140625 -0.414062 0.109375 -0.535156 0.109375 -0.671875 C 0.109375 -0.796875 0.140625 -0.910156 0.203125 -1.015625 C 0.265625 -1.117188 0.347656 -1.195312 0.453125 -1.25 C 0.554688 -1.3125 0.671875 -1.34375 0.796875 -1.34375 C 0.910156 -1.34375 1.015625 -1.316406 1.109375 -1.265625 C 1.203125 -1.222656 1.273438 -1.160156 1.328125 -1.078125 L 1.1875 -0.984375 C 1.144531 -1.046875 1.085938 -1.09375 1.015625 -1.125 C 0.953125 -1.164062 0.878906 -1.1875 0.796875 -1.1875 C 0.703125 -1.1875 0.613281 -1.164062 0.53125 -1.125 C 0.457031 -1.082031 0.398438 -1.019531 0.359375 -0.9375 C 0.316406 -0.851562 0.296875 -0.765625 0.296875 -0.671875 C 0.296875 -0.566406 0.316406 -0.472656 0.359375 -0.390625 C 0.398438 -0.316406 0.457031 -0.253906 0.53125 -0.203125 C 0.613281 -0.160156 0.703125 -0.140625 0.796875 -0.140625 C 0.878906 -0.140625 0.953125 -0.15625 1.015625 -0.1875 C 1.085938 -0.226562 1.144531 -0.28125 1.1875 -0.34375 L 1.328125 -0.25 C 1.273438 -0.164062 1.203125 -0.0976562 1.109375 -0.046875 C 1.015625 -0.00390625 0.910156 0.015625 0.796875 0.015625 Z M 0.796875 0.015625 "/></g></g></g></g><g clip-path="url(#70b0e0386a)"><g fill="#000000" fill-opacity="1"><g transform="translate(17.696623, 3.219057)"><g><path d="M 0.796875 0.015625 C 0.671875 0.015625 0.554688 -0.0078125 0.453125 -0.0625 C 0.347656 -0.125 0.265625 -0.207031 0.203125 -0.3125 C 0.140625 -0.414062 0.109375 -0.535156 0.109375 -0.671875 C 0.109375 -0.796875 0.140625 -0.910156 0.203125 -1.015625 C 0.265625 -1.117188 0.347656 -1.195312 0.453125 -1.25 C 0.554688 -1.3125 0.671875 -1.34375 0.796875 -1.34375 C 0.921875 -1.34375 1.035156 -1.3125 1.140625 -1.25 C 1.242188 -1.195312 1.320312 -1.117188 1.375 -1.015625 C 1.4375 -0.910156 1.46875 -0.796875 1.46875 -0.671875 C 1.46875 -0.535156 1.4375 -0.414062 1.375 -0.3125 C 1.320312 -0.207031 1.242188 -0.125 1.140625 -0.0625 C 1.035156 -0.0078125 0.921875 0.015625 0.796875 0.015625 Z M 0.796875 -0.140625 C 0.890625 -0.140625 0.972656 -0.160156 1.046875 -0.203125 C 1.117188 -0.253906 1.175781 -0.316406 1.21875 -0.390625 C 1.257812 -0.472656 1.28125 -0.566406 1.28125 -0.671875 C 1.28125 -0.765625 1.257812 -0.851562 1.21875 -0.9375 C 1.175781 -1.019531 1.117188 -1.082031 1.046875 -1.125 C 0.972656 -1.164062 0.890625 -1.1875 0.796875 -1.1875 C 0.703125 -1.1875 0.613281 -1.164062 0.53125 -1.125 C 0.457031 -1.082031 0.398438 -1.019531 0.359375 -0.9375 C 0.316406 -0.851562 0.296875 -0.765625 0.296875 -0.671875 C 0.296875 -0.566406 0.316406 -0.472656 0.359375 -0.390625 C 0.398438 -0.316406 0.457031 -0.253906 0.53125 -0.203125 C 0.613281 -0.160156 0.703125 -0.140625 0.796875 -0.140625 Z M 0.796875 -0.140625 "/></g></g></g></g><g clip-path="url(#ff62b81303)"><g fill="#000000" fill-opacity="1"><g transform="translate(19.258729, 3.219057)"><g><path d="M 1.46875 -1.875 L 1.46875 0 L 1.296875 0 L 1.296875 -0.265625 C 1.242188 -0.171875 1.171875 -0.0976562 1.078125 -0.046875 C 0.992188 -0.00390625 0.894531 0.015625 0.78125 0.015625 C 0.65625 0.015625 0.539062 -0.0078125 0.4375 -0.0625 C 0.332031 -0.125 0.25 -0.207031 0.1875 -0.3125 C 0.132812 -0.414062 0.109375 -0.535156 0.109375 -0.671875 C 0.109375 -0.796875 0.132812 -0.910156 0.1875 -1.015625 C 0.25 -1.117188 0.332031 -1.195312 0.4375 -1.25 C 0.539062 -1.3125 0.65625 -1.34375 0.78125 -1.34375 C 0.882812 -1.34375 0.976562 -1.316406 1.0625 -1.265625 C 1.15625 -1.222656 1.226562 -1.160156 1.28125 -1.078125 L 1.28125 -1.875 Z M 0.796875 -0.140625 C 0.890625 -0.140625 0.972656 -0.160156 1.046875 -0.203125 C 1.117188 -0.253906 1.175781 -0.316406 1.21875 -0.390625 C 1.257812 -0.472656 1.28125 -0.566406 1.28125 -0.671875 C 1.28125 -0.765625 1.257812 -0.851562 1.21875 -0.9375 C 1.175781 -1.019531 1.117188 -1.082031 1.046875 -1.125 C 0.972656 -1.164062 0.890625 -1.1875 0.796875 -1.1875 C 0.703125 -1.1875 0.613281 -1.164062 0.53125 -1.125 C 0.457031 -1.082031 0.398438 -1.019531 0.359375 -0.9375 C 0.316406 -0.851562 0.296875 -0.765625 0.296875 -0.671875 C 0.296875 -0.566406 0.316406 -0.472656 0.359375 -0.390625 C 0.398438 -0.316406 0.457031 -0.253906 0.53125 -0.203125 C 0.613281 -0.160156 0.703125 -0.140625 0.796875 -0.140625 Z M 0.796875 -0.140625 "/></g></g></g></g><g clip-path="url(#b4218b4cfa)"><g fill="#000000" fill-opacity="1"><g transform="translate(20.949958, 3.219057)"><g><path d="M 1.40625 -0.609375 L 0.296875 -0.609375 C 0.304688 -0.472656 0.359375 -0.359375 0.453125 -0.265625 C 0.546875 -0.179688 0.664062 -0.140625 0.8125 -0.140625 C 0.894531 -0.140625 0.972656 -0.15625 1.046875 -0.1875 C 1.117188 -0.21875 1.179688 -0.265625 1.234375 -0.328125 L 1.328125 -0.203125 C 1.265625 -0.128906 1.1875 -0.0703125 1.09375 -0.03125 C 1.007812 0 0.914062 0.015625 0.8125 0.015625 C 0.675781 0.015625 0.554688 -0.0078125 0.453125 -0.0625 C 0.347656 -0.125 0.265625 -0.207031 0.203125 -0.3125 C 0.140625 -0.414062 0.109375 -0.535156 0.109375 -0.671875 C 0.109375 -0.796875 0.132812 -0.910156 0.1875 -1.015625 C 0.25 -1.117188 0.328125 -1.195312 0.421875 -1.25 C 0.523438 -1.3125 0.640625 -1.34375 0.765625 -1.34375 C 0.890625 -1.34375 1 -1.3125 1.09375 -1.25 C 1.195312 -1.195312 1.273438 -1.117188 1.328125 -1.015625 C 1.378906 -0.910156 1.40625 -0.796875 1.40625 -0.671875 Z M 0.765625 -1.1875 C 0.640625 -1.1875 0.53125 -1.144531 0.4375 -1.0625 C 0.351562 -0.976562 0.304688 -0.875 0.296875 -0.75 L 1.234375 -0.75 C 1.222656 -0.875 1.175781 -0.976562 1.09375 -1.0625 C 1.007812 -1.144531 0.898438 -1.1875 0.765625 -1.1875 Z M 0.765625 -1.1875 "/></g></g></g></g><g clip-path="url(#81e5392561)"><g fill="#000000" fill-opacity="1"><g transform="translate(22.42851, 3.219057)"><g><path d="M 2.203125 -1.328125 L 1.703125 0 L 1.53125 0 L 1.109375 -1.09375 L 0.6875 0 L 0.515625 0 L 0.015625 -1.328125 L 0.1875 -1.328125 L 0.609375 -0.203125 L 1.03125 -1.328125 L 1.1875 -1.328125 L 1.625 -0.203125 L 2.046875 -1.328125 Z M 2.203125 -1.328125 "/></g></g></g></g><g clip-path="url(#3ef48a74d9)"><g fill="#000000" fill-opacity="1"><g transform="translate(24.628629, 3.219057)"><g><path d="M 0.25 -1.328125 L 0.4375 -1.328125 L 0.4375 0 L 0.25 0 Z M 0.328125 -1.625 C 0.296875 -1.625 0.265625 -1.632812 0.234375 -1.65625 C 0.210938 -1.6875 0.203125 -1.71875 0.203125 -1.75 C 0.203125 -1.78125 0.210938 -1.804688 0.234375 -1.828125 C 0.265625 -1.859375 0.296875 -1.875 0.328125 -1.875 C 0.367188 -1.875 0.398438 -1.863281 0.421875 -1.84375 C 0.453125 -1.820312 0.46875 -1.789062 0.46875 -1.75 C 0.46875 -1.71875 0.453125 -1.6875 0.421875 -1.65625 C 0.398438 -1.632812 0.367188 -1.625 0.328125 -1.625 Z M 0.328125 -1.625 "/></g></g></g></g><g clip-path="url(#144086581b)"><g fill="#000000" fill-opacity="1"><g transform="translate(25.284356, 3.219057)"><g><path d="M 0.953125 -0.078125 C 0.921875 -0.046875 0.878906 -0.0195312 0.828125 0 C 0.773438 0.0078125 0.722656 0.015625 0.671875 0.015625 C 0.546875 0.015625 0.445312 -0.015625 0.375 -0.078125 C 0.3125 -0.148438 0.28125 -0.25 0.28125 -0.375 L 0.28125 -1.171875 L 0.046875 -1.171875 L 0.046875 -1.328125 L 0.28125 -1.328125 L 0.28125 -1.625 L 0.453125 -1.625 L 0.453125 -1.328125 L 0.859375 -1.328125 L 0.859375 -1.171875 L 0.453125 -1.171875 L 0.453125 -0.390625 C 0.453125 -0.304688 0.472656 -0.242188 0.515625 -0.203125 C 0.554688 -0.160156 0.613281 -0.140625 0.6875 -0.140625 C 0.726562 -0.140625 0.765625 -0.144531 0.796875 -0.15625 C 0.828125 -0.164062 0.859375 -0.179688 0.890625 -0.203125 Z M 0.953125 -0.078125 "/></g></g></g></g><g clip-path="url(#54c42a130a)"><g fill="#000000" fill-opacity="1"><g transform="translate(26.286939, 3.219057)"><g><path d="M 0.921875 -1.34375 C 1.085938 -1.34375 1.21875 -1.289062 1.3125 -1.1875 C 1.414062 -1.09375 1.46875 -0.953125 1.46875 -0.765625 L 1.46875 0 L 1.296875 0 L 1.296875 -0.75 C 1.296875 -0.894531 1.257812 -1 1.1875 -1.0625 C 1.125 -1.132812 1.023438 -1.171875 0.890625 -1.171875 C 0.753906 -1.171875 0.644531 -1.128906 0.5625 -1.046875 C 0.476562 -0.960938 0.4375 -0.847656 0.4375 -0.703125 L 0.4375 0 L 0.25 0 L 0.25 -1.875 L 0.4375 -1.875 L 0.4375 -1.09375 C 0.476562 -1.175781 0.539062 -1.238281 0.625 -1.28125 C 0.71875 -1.320312 0.816406 -1.34375 0.921875 -1.34375 Z M 0.921875 -1.34375 "/></g></g></g></g><g clip-path="url(#530f175451)"><g fill="#000000" fill-opacity="1"><g transform="translate(27.975636, 3.219057)"><g><path d="M 0.609375 0.015625 C 0.503906 0.015625 0.398438 0 0.296875 -0.03125 C 0.203125 -0.0625 0.125 -0.101562 0.0625 -0.15625 L 0.140625 -0.296875 C 0.203125 -0.253906 0.273438 -0.21875 0.359375 -0.1875 C 0.441406 -0.15625 0.53125 -0.140625 0.625 -0.140625 C 0.738281 -0.140625 0.828125 -0.160156 0.890625 -0.203125 C 0.953125 -0.242188 0.984375 -0.296875 0.984375 -0.359375 C 0.984375 -0.410156 0.960938 -0.445312 0.921875 -0.46875 C 0.890625 -0.5 0.847656 -0.519531 0.796875 -0.53125 C 0.753906 -0.550781 0.691406 -0.566406 0.609375 -0.578125 C 0.503906 -0.597656 0.414062 -0.617188 0.34375 -0.640625 C 0.28125 -0.660156 0.222656 -0.695312 0.171875 -0.75 C 0.128906 -0.800781 0.109375 -0.875 0.109375 -0.96875 C 0.109375 -1.070312 0.15625 -1.160156 0.25 -1.234375 C 0.34375 -1.304688 0.472656 -1.34375 0.640625 -1.34375 C 0.722656 -1.34375 0.804688 -1.328125 0.890625 -1.296875 C 0.984375 -1.273438 1.054688 -1.25 1.109375 -1.21875 L 1.03125 -1.078125 C 0.925781 -1.148438 0.796875 -1.1875 0.640625 -1.1875 C 0.523438 -1.1875 0.4375 -1.164062 0.375 -1.125 C 0.320312 -1.082031 0.296875 -1.03125 0.296875 -0.96875 C 0.296875 -0.914062 0.3125 -0.875 0.34375 -0.84375 C 0.375 -0.8125 0.414062 -0.785156 0.46875 -0.765625 C 0.519531 -0.753906 0.585938 -0.742188 0.671875 -0.734375 C 0.773438 -0.710938 0.859375 -0.691406 0.921875 -0.671875 C 0.984375 -0.648438 1.035156 -0.613281 1.078125 -0.5625 C 1.128906 -0.519531 1.15625 -0.453125 1.15625 -0.359375 C 1.15625 -0.242188 1.101562 -0.148438 1 -0.078125 C 0.90625 -0.015625 0.773438 0.015625 0.609375 0.015625 Z M 0.609375 0.015625 "/></g></g></g></g><g clip-path="url(#ebe1ef84ec)"><g fill="#000000" fill-opacity="1"><g transform="translate(29.188356, 3.219057)"><g><path d="M 1.40625 -0.609375 L 0.296875 -0.609375 C 0.304688 -0.472656 0.359375 -0.359375 0.453125 -0.265625 C 0.546875 -0.179688 0.664062 -0.140625 0.8125 -0.140625 C 0.894531 -0.140625 0.972656 -0.15625 1.046875 -0.1875 C 1.117188 -0.21875 1.179688 -0.265625 1.234375 -0.328125 L 1.328125 -0.203125 C 1.265625 -0.128906 1.1875 -0.0703125 1.09375 -0.03125 C 1.007812 0 0.914062 0.015625 0.8125 0.015625 C 0.675781 0.015625 0.554688 -0.0078125 0.453125 -0.0625 C 0.347656 -0.125 0.265625 -0.207031 0.203125 -0.3125 C 0.140625 -0.414062 0.109375 -0.535156 0.109375 -0.671875 C 0.109375 -0.796875 0.132812 -0.910156 0.1875 -1.015625 C 0.25 -1.117188 0.328125 -1.195312 0.421875 -1.25 C 0.523438 -1.3125 0.640625 -1.34375 0.765625 -1.34375 C 0.890625 -1.34375 1 -1.3125 1.09375 -1.25 C 1.195312 -1.195312 1.273438 -1.117188 1.328125 -1.015625 C 1.378906 -0.910156 1.40625 -0.796875 1.40625 -0.671875 Z M 0.765625 -1.1875 C 0.640625 -1.1875 0.53125 -1.144531 0.4375 -1.0625 C 0.351562 -0.976562 0.304688 -0.875 0.296875 -0.75 L 1.234375 -0.75 C 1.222656 -0.875 1.175781 -0.976562 1.09375 -1.0625 C 1.007812 -1.144531 0.898438 -1.1875 0.765625 -1.1875 Z M 0.765625 -1.1875 "/></g></g></g></g><g clip-path="url(#52096af2f1)"><g fill="#000000" fill-opacity="1"><g transform="translate(30.692231, 3.219057)"><g><path d="M 0.953125 -0.078125 C 0.921875 -0.046875 0.878906 -0.0195312 0.828125 0 C 0.773438 0.0078125 0.722656 0.015625 0.671875 0.015625 C 0.546875 0.015625 0.445312 -0.015625 0.375 -0.078125 C 0.3125 -0.148438 0.28125 -0.25 0.28125 -0.375 L 0.28125 -1.171875 L 0.046875 -1.171875 L 0.046875 -1.328125 L 0.28125 -1.328125 L 0.28125 -1.625 L 0.453125 -1.625 L 0.453125 -1.328125 L 0.859375 -1.328125 L 0.859375 -1.171875 L 0.453125 -1.171875 L 0.453125 -0.390625 C 0.453125 -0.304688 0.472656 -0.242188 0.515625 -0.203125 C 0.554688 -0.160156 0.613281 -0.140625 0.6875 -0.140625 C 0.726562 -0.140625 0.765625 -0.144531 0.796875 -0.15625 C 0.828125 -0.164062 0.859375 -0.179688 0.890625 -0.203125 Z M 0.953125 -0.078125 "/></g></g></g></g><g clip-path="url(#dea48410ce)"><g fill="#000000" fill-opacity="1"><g transform="translate(31.694814, 3.219057)"><g><path d="M 0.921875 -1.34375 C 1.085938 -1.34375 1.21875 -1.289062 1.3125 -1.1875 C 1.414062 -1.09375 1.46875 -0.953125 1.46875 -0.765625 L 1.46875 0 L 1.296875 0 L 1.296875 -0.75 C 1.296875 -0.894531 1.257812 -1 1.1875 -1.0625 C 1.125 -1.132812 1.023438 -1.171875 0.890625 -1.171875 C 0.753906 -1.171875 0.644531 -1.128906 0.5625 -1.046875 C 0.476562 -0.960938 0.4375 -0.847656 0.4375 -0.703125 L 0.4375 0 L 0.25 0 L 0.25 -1.875 L 0.4375 -1.875 L 0.4375 -1.09375 C 0.476562 -1.175781 0.539062 -1.238281 0.625 -1.28125 C 0.71875 -1.320312 0.816406 -1.34375 0.921875 -1.34375 Z M 0.921875 -1.34375 "/></g></g></g></g><g clip-path="url(#854b36135e)"><g fill="#000000" fill-opacity="1"><g transform="translate(33.38351, 3.219057)"><g><path d="M 0.265625 0.015625 C 0.234375 0.015625 0.203125 0.00390625 0.171875 -0.015625 C 0.148438 -0.046875 0.140625 -0.0820312 0.140625 -0.125 C 0.140625 -0.164062 0.148438 -0.195312 0.171875 -0.21875 C 0.203125 -0.25 0.234375 -0.265625 0.265625 -0.265625 C 0.304688 -0.265625 0.335938 -0.25 0.359375 -0.21875 C 0.390625 -0.195312 0.40625 -0.164062 0.40625 -0.125 C 0.40625 -0.0820312 0.390625 -0.046875 0.359375 -0.015625 C 0.335938 0.00390625 0.304688 0.015625 0.265625 0.015625 Z M 0.265625 0.015625 "/></g></g></g></g><g clip-path="url(#71ec2c365b)"><g fill="#000000" fill-opacity="1"><g transform="translate(33.85694, 3.219057)"><g><path d="M 0.796875 0.015625 C 0.671875 0.015625 0.554688 -0.0078125 0.453125 -0.0625 C 0.347656 -0.125 0.265625 -0.207031 0.203125 -0.3125 C 0.140625 -0.414062 0.109375 -0.535156 0.109375 -0.671875 C 0.109375 -0.796875 0.140625 -0.910156 0.203125 -1.015625 C 0.265625 -1.117188 0.347656 -1.195312 0.453125 -1.25 C 0.554688 -1.3125 0.671875 -1.34375 0.796875 -1.34375 C 0.910156 -1.34375 1.015625 -1.316406 1.109375 -1.265625 C 1.203125 -1.222656 1.273438 -1.160156 1.328125 -1.078125 L 1.1875 -0.984375 C 1.144531 -1.046875 1.085938 -1.09375 1.015625 -1.125 C 0.953125 -1.164062 0.878906 -1.1875 0.796875 -1.1875 C 0.703125 -1.1875 0.613281 -1.164062 0.53125 -1.125 C 0.457031 -1.082031 0.398438 -1.019531 0.359375 -0.9375 C 0.316406 -0.851562 0.296875 -0.765625 0.296875 -0.671875 C 0.296875 -0.566406 0.316406 -0.472656 0.359375 -0.390625 C 0.398438 -0.316406 0.457031 -0.253906 0.53125 -0.203125 C 0.613281 -0.160156 0.703125 -0.140625 0.796875 -0.140625 C 0.878906 -0.140625 0.953125 -0.15625 1.015625 -0.1875 C 1.085938 -0.226562 1.144531 -0.28125 1.1875 -0.34375 L 1.328125 -0.25 C 1.273438 -0.164062 1.203125 -0.0976562 1.109375 -0.046875 C 1.015625 -0.00390625 0.910156 0.015625 0.796875 0.015625 Z M 0.796875 0.015625 "/></g></g></g></g><g clip-path="url(#9cd15f3e55)"><g fill="#000000" fill-opacity="1"><g transform="translate(35.234226, 3.219057)"><g><path d="M 0.796875 0.015625 C 0.671875 0.015625 0.554688 -0.0078125 0.453125 -0.0625 C 0.347656 -0.125 0.265625 -0.207031 0.203125 -0.3125 C 0.140625 -0.414062 0.109375 -0.535156 0.109375 -0.671875 C 0.109375 -0.796875 0.140625 -0.910156 0.203125 -1.015625 C 0.265625 -1.117188 0.347656 -1.195312 0.453125 -1.25 C 0.554688 -1.3125 0.671875 -1.34375 0.796875 -1.34375 C 0.921875 -1.34375 1.035156 -1.3125 1.140625 -1.25 C 1.242188 -1.195312 1.320312 -1.117188 1.375 -1.015625 C 1.4375 -0.910156 1.46875 -0.796875 1.46875 -0.671875 C 1.46875 -0.535156 1.4375 -0.414062 1.375 -0.3125 C 1.320312 -0.207031 1.242188 -0.125 1.140625 -0.0625 C 1.035156 -0.0078125 0.921875 0.015625 0.796875 0.015625 Z M 0.796875 -0.140625 C 0.890625 -0.140625 0.972656 -0.160156 1.046875 -0.203125 C 1.117188 -0.253906 1.175781 -0.316406 1.21875 -0.390625 C 1.257812 -0.472656 1.28125 -0.566406 1.28125 -0.671875 C 1.28125 -0.765625 1.257812 -0.851562 1.21875 -0.9375 C 1.175781 -1.019531 1.117188 -1.082031 1.046875 -1.125 C 0.972656 -1.164062 0.890625 -1.1875 0.796875 -1.1875 C 0.703125 -1.1875 0.613281 -1.164062 0.53125 -1.125 C 0.457031 -1.082031 0.398438 -1.019531 0.359375 -0.9375 C 0.316406 -0.851562 0.296875 -0.765625 0.296875 -0.671875 C 0.296875 -0.566406 0.316406 -0.472656 0.359375 -0.390625 C 0.398438 -0.316406 0.457031 -0.253906 0.53125 -0.203125 C 0.613281 -0.160156 0.703125 -0.140625 0.796875 -0.140625 Z M 0.796875 -0.140625 "/></g></g></g></g><g clip-path="url(#23609f4e04)"><g fill="#000000" fill-opacity="1"><g transform="translate(36.758348, 3.219057)"><g><path d="M 0.265625 0.015625 C 0.234375 0.015625 0.203125 0.00390625 0.171875 -0.015625 C 0.148438 -0.046875 0.140625 -0.0820312 0.140625 -0.125 C 0.140625 -0.164062 0.148438 -0.195312 0.171875 -0.21875 C 0.203125 -0.25 0.234375 -0.265625 0.265625 -0.265625 C 0.304688 -0.265625 0.335938 -0.25 0.359375 -0.21875 C 0.390625 -0.195312 0.40625 -0.164062 0.40625 -0.125 C 0.40625 -0.0820312 0.390625 -0.046875 0.359375 -0.015625 C 0.335938 0.00390625 0.304688 0.015625 0.265625 0.015625 Z M 0.265625 0.015625 "/></g></g></g></g><g clip-path="url(#5cae19804c)"><g fill="#000000" fill-opacity="1"><g transform="translate(37.269764, 3.219057)"><g><path d="M 0.75 -0.671875 L 0.4375 -0.375 L 0.4375 0 L 0.25 0 L 0.25 -1.875 L 0.4375 -1.875 L 0.4375 -0.609375 L 1.21875 -1.328125 L 1.453125 -1.328125 L 0.875 -0.78125 L 1.5 0 L 1.28125 0 Z M 0.75 -0.671875 "/></g></g></g></g><g clip-path="url(#a5f354bb56)"><g fill="#000000" fill-opacity="1"><g transform="translate(38.712865, 3.219057)"><g><path d="M 1.40625 -0.609375 L 0.296875 -0.609375 C 0.304688 -0.472656 0.359375 -0.359375 0.453125 -0.265625 C 0.546875 -0.179688 0.664062 -0.140625 0.8125 -0.140625 C 0.894531 -0.140625 0.972656 -0.15625 1.046875 -0.1875 C 1.117188 -0.21875 1.179688 -0.265625 1.234375 -0.328125 L 1.328125 -0.203125 C 1.265625 -0.128906 1.1875 -0.0703125 1.09375 -0.03125 C 1.007812 0 0.914062 0.015625 0.8125 0.015625 C 0.675781 0.015625 0.554688 -0.0078125 0.453125 -0.0625 C 0.347656 -0.125 0.265625 -0.207031 0.203125 -0.3125 C 0.140625 -0.414062 0.109375 -0.535156 0.109375 -0.671875 C 0.109375 -0.796875 0.132812 -0.910156 0.1875 -1.015625 C 0.25 -1.117188 0.328125 -1.195312 0.421875 -1.25 C 0.523438 -1.3125 0.640625 -1.34375 0.765625 -1.34375 C 0.890625 -1.34375 1 -1.3125 1.09375 -1.25 C 1.195312 -1.195312 1.273438 -1.117188 1.328125 -1.015625 C 1.378906 -0.910156 1.40625 -0.796875 1.40625 -0.671875 Z M 0.765625 -1.1875 C 0.640625 -1.1875 0.53125 -1.144531 0.4375 -1.0625 C 0.351562 -0.976562 0.304688 -0.875 0.296875 -0.75 L 1.234375 -0.75 C 1.222656 -0.875 1.175781 -0.976562 1.09375 -1.0625 C 1.007812 -1.144531 0.898438 -1.1875 0.765625 -1.1875 Z M 0.765625 -1.1875 "/></g></g></g></g></g></g><g transform="matrix(1, 0, 0, 1, 5, 27)"><g clip-path="url(#abdb394e08)"><g clip-path="url(#2106912c32)"><g fill="#000000" fill-opacity="1"><g transform="translate(0.316141, 4.707768)"><g><path d="M 1.5625 -2.828125 C 1.8125 -2.828125 2.03125 -2.785156 2.21875 -2.703125 C 2.40625 -2.617188 2.546875 -2.5 2.640625 -2.34375 C 2.742188 -2.195312 2.796875 -2.019531 2.796875 -1.8125 C 2.796875 -1.601562 2.742188 -1.421875 2.640625 -1.265625 C 2.546875 -1.109375 2.40625 -0.988281 2.21875 -0.90625 C 2.03125 -0.820312 1.8125 -0.78125 1.5625 -0.78125 L 0.984375 -0.78125 L 0.984375 0 L 0.328125 0 L 0.328125 -2.828125 Z M 1.53125 -1.3125 C 1.726562 -1.3125 1.875 -1.351562 1.96875 -1.4375 C 2.070312 -1.519531 2.125 -1.644531 2.125 -1.8125 C 2.125 -1.96875 2.070312 -2.085938 1.96875 -2.171875 C 1.875 -2.253906 1.726562 -2.296875 1.53125 -2.296875 L 0.984375 -2.296875 L 0.984375 -1.3125 Z M 1.53125 -1.3125 "/></g></g></g></g><g fill="#000000" fill-opacity="1"><g transform="translate(3.132136, 4.707768)"><g><path d="M 0.53125 0.03125 C 0.414062 0.03125 0.320312 -0.00390625 0.25 -0.078125 C 0.175781 -0.148438 0.140625 -0.242188 0.140625 -0.359375 C 0.140625 -0.472656 0.175781 -0.566406 0.25 -0.640625 C 0.320312 -0.710938 0.414062 -0.75 0.53125 -0.75 C 0.644531 -0.75 0.738281 -0.710938 0.8125 -0.640625 C 0.882812 -0.566406 0.921875 -0.472656 0.921875 -0.359375 C 0.921875 -0.242188 0.882812 -0.148438 0.8125 -0.078125 C 0.738281 -0.00390625 0.644531 0.03125 0.53125 0.03125 Z M 0.53125 0.03125 "/></g></g></g><g fill="#000000" fill-opacity="1"><g transform="translate(4.072149, 4.707768)"><g><path d="M 1.703125 0.046875 C 1.410156 0.046875 1.144531 -0.015625 0.90625 -0.140625 C 0.675781 -0.265625 0.492188 -0.4375 0.359375 -0.65625 C 0.222656 -0.882812 0.15625 -1.140625 0.15625 -1.421875 C 0.15625 -1.691406 0.222656 -1.9375 0.359375 -2.15625 C 0.492188 -2.382812 0.675781 -2.5625 0.90625 -2.6875 C 1.144531 -2.8125 1.410156 -2.875 1.703125 -2.875 C 2.003906 -2.875 2.269531 -2.8125 2.5 -2.6875 C 2.738281 -2.5625 2.921875 -2.382812 3.046875 -2.15625 C 3.179688 -1.9375 3.25 -1.691406 3.25 -1.421875 C 3.25 -1.140625 3.179688 -0.882812 3.046875 -0.65625 C 2.921875 -0.4375 2.738281 -0.265625 2.5 -0.140625 C 2.269531 -0.015625 2.003906 0.046875 1.703125 0.046875 Z M 1.703125 -0.515625 C 1.867188 -0.515625 2.019531 -0.550781 2.15625 -0.625 C 2.289062 -0.695312 2.394531 -0.800781 2.46875 -0.9375 C 2.550781 -1.082031 2.59375 -1.242188 2.59375 -1.421875 C 2.59375 -1.585938 2.550781 -1.738281 2.46875 -1.875 C 2.394531 -2.019531 2.289062 -2.128906 2.15625 -2.203125 C 2.019531 -2.285156 1.867188 -2.328125 1.703125 -2.328125 C 1.535156 -2.328125 1.382812 -2.285156 1.25 -2.203125 C 1.113281 -2.128906 1.007812 -2.019531 0.9375 -1.875 C 0.863281 -1.738281 0.828125 -1.585938 0.828125 -1.421875 C 0.828125 -1.242188 0.863281 -1.082031 0.9375 -0.9375 C 1.007812 -0.800781 1.113281 -0.695312 1.25 -0.625 C 1.382812 -0.550781 1.535156 -0.515625 1.703125 -0.515625 Z M 1.703125 -0.515625 "/></g></g></g><g fill="#000000" fill-opacity="1"><g transform="translate(7.37031, 4.707768)"><g><path d="M 0.53125 0.03125 C 0.414062 0.03125 0.320312 -0.00390625 0.25 -0.078125 C 0.175781 -0.148438 0.140625 -0.242188 0.140625 -0.359375 C 0.140625 -0.472656 0.175781 -0.566406 0.25 -0.640625 C 0.320312 -0.710938 0.414062 -0.75 0.53125 -0.75 C 0.644531 -0.75 0.738281 -0.710938 0.8125 -0.640625 C 0.882812 -0.566406 0.921875 -0.472656 0.921875 -0.359375 C 0.921875 -0.242188 0.882812 -0.148438 0.8125 -0.078125 C 0.738281 -0.00390625 0.644531 0.03125 0.53125 0.03125 Z M 0.53125 0.03125 "/></g></g></g><g fill="#000000" fill-opacity="1"><g transform="translate(8.391361, 4.707768)"><g><path d="M 2.421875 -1.46875 C 2.578125 -1.414062 2.703125 -1.328125 2.796875 -1.203125 C 2.890625 -1.085938 2.9375 -0.941406 2.9375 -0.765625 C 2.9375 -0.523438 2.835938 -0.335938 2.640625 -0.203125 C 2.453125 -0.0664062 2.171875 0 1.796875 0 L 0.328125 0 L 0.328125 -2.828125 L 1.71875 -2.828125 C 2.0625 -2.828125 2.328125 -2.757812 2.515625 -2.625 C 2.703125 -2.5 2.796875 -2.320312 2.796875 -2.09375 C 2.796875 -1.957031 2.757812 -1.832031 2.6875 -1.71875 C 2.625 -1.613281 2.535156 -1.53125 2.421875 -1.46875 Z M 0.984375 -2.34375 L 0.984375 -1.671875 L 1.640625 -1.671875 C 1.796875 -1.671875 1.914062 -1.695312 2 -1.75 C 2.082031 -1.8125 2.125 -1.894531 2.125 -2 C 2.125 -2.113281 2.082031 -2.195312 2 -2.25 C 1.914062 -2.3125 1.796875 -2.34375 1.640625 -2.34375 Z M 1.75 -0.5 C 1.925781 -0.5 2.054688 -0.523438 2.140625 -0.578125 C 2.234375 -0.628906 2.28125 -0.71875 2.28125 -0.84375 C 2.28125 -1.070312 2.101562 -1.1875 1.75 -1.1875 L 0.984375 -1.1875 L 0.984375 -0.5 Z M 1.75 -0.5 "/></g></g></g><g fill="#000000" fill-opacity="1"><g transform="translate(11.45047, 4.707768)"><g><path d="M 1.328125 0.03125 C 1.097656 0.03125 0.890625 -0.015625 0.703125 -0.109375 C 0.523438 -0.203125 0.382812 -0.332031 0.28125 -0.5 C 0.175781 -0.675781 0.125 -0.875 0.125 -1.09375 C 0.125 -1.300781 0.175781 -1.488281 0.28125 -1.65625 C 0.382812 -1.832031 0.523438 -1.96875 0.703125 -2.0625 C 0.890625 -2.15625 1.097656 -2.203125 1.328125 -2.203125 C 1.554688 -2.203125 1.757812 -2.15625 1.9375 -2.0625 C 2.125 -1.96875 2.265625 -1.832031 2.359375 -1.65625 C 2.460938 -1.488281 2.515625 -1.300781 2.515625 -1.09375 C 2.515625 -0.875 2.460938 -0.675781 2.359375 -0.5 C 2.265625 -0.332031 2.125 -0.203125 1.9375 -0.109375 C 1.757812 -0.015625 1.554688 0.03125 1.328125 0.03125 Z M 1.328125 -0.484375 C 1.484375 -0.484375 1.613281 -0.535156 1.71875 -0.640625 C 1.820312 -0.753906 1.875 -0.90625 1.875 -1.09375 C 1.875 -1.269531 1.820312 -1.410156 1.71875 -1.515625 C 1.613281 -1.628906 1.484375 -1.6875 1.328125 -1.6875 C 1.160156 -1.6875 1.023438 -1.628906 0.921875 -1.515625 C 0.816406 -1.410156 0.765625 -1.269531 0.765625 -1.09375 C 0.765625 -0.90625 0.816406 -0.753906 0.921875 -0.640625 C 1.023438 -0.535156 1.160156 -0.484375 1.328125 -0.484375 Z M 1.328125 -0.484375 "/></g></g></g><g fill="#000000" fill-opacity="1"><g transform="translate(13.994996, 4.707768)"><g><path d="M 1.671875 0 L 1.203125 -0.671875 L 0.703125 0 L 0.015625 0 L 0.859375 -1.09375 L 0.046875 -2.171875 L 0.75 -2.171875 L 1.21875 -1.546875 L 1.6875 -2.171875 L 2.359375 -2.171875 L 1.546875 -1.109375 L 2.390625 0 Z M 1.671875 0 "/></g></g></g><g fill="#000000" fill-opacity="1"><g transform="translate(16.365299, 4.707768)"><g/></g></g><g fill="#000000" fill-opacity="1"><g transform="translate(17.471438, 4.707768)"><g><path d="M 1.25 -2.828125 L 1.25 0 L 0.59375 0 L 0.59375 -2.3125 L 0.03125 -2.3125 L 0.03125 -2.828125 Z M 1.25 -2.828125 "/></g></g></g><g fill="#000000" fill-opacity="1"><g transform="translate(19.019224, 4.707768)"><g><path d="M 1.125 -1.765625 C 1.53125 -1.765625 1.828125 -1.6875 2.015625 -1.53125 C 2.203125 -1.375 2.296875 -1.160156 2.296875 -0.890625 C 2.296875 -0.710938 2.253906 -0.550781 2.171875 -0.40625 C 2.085938 -0.269531 1.957031 -0.160156 1.78125 -0.078125 C 1.601562 0.00390625 1.382812 0.046875 1.125 0.046875 C 0.925781 0.046875 0.726562 0.0195312 0.53125 -0.03125 C 0.34375 -0.0820312 0.179688 -0.15625 0.046875 -0.25 L 0.296875 -0.75 C 0.410156 -0.675781 0.535156 -0.613281 0.671875 -0.5625 C 0.804688 -0.519531 0.953125 -0.5 1.109375 -0.5 C 1.273438 -0.5 1.40625 -0.53125 1.5 -0.59375 C 1.59375 -0.664062 1.640625 -0.757812 1.640625 -0.875 C 1.640625 -0.988281 1.585938 -1.078125 1.484375 -1.140625 C 1.390625 -1.203125 1.21875 -1.234375 0.96875 -1.234375 L 0.25 -1.234375 L 0.390625 -2.828125 L 2.125 -2.828125 L 2.125 -2.3125 L 0.9375 -2.3125 L 0.890625 -1.765625 Z M 1.125 -1.765625 "/></g></g></g><g fill="#000000" fill-opacity="1"><g transform="translate(21.389527, 4.707768)"><g><path d="M 2.75 -0.59375 L 2.296875 -0.59375 L 2.296875 0 L 1.65625 0 L 1.65625 -0.59375 L 0.125 -0.59375 L 0.125 -1.03125 L 1.453125 -2.828125 L 2.15625 -2.828125 L 0.90625 -1.125 L 1.671875 -1.125 L 1.671875 -1.65625 L 2.296875 -1.65625 L 2.296875 -1.125 L 2.75 -1.125 Z M 2.75 -0.59375 "/></g></g></g><g fill="#000000" fill-opacity="1"><g transform="translate(24.039398, 4.707768)"><g><path d="M 1.25 -2.828125 L 1.25 0 L 0.59375 0 L 0.59375 -2.3125 L 0.03125 -2.3125 L 0.03125 -2.828125 Z M 1.25 -2.828125 "/></g></g></g><g fill="#000000" fill-opacity="1"><g transform="translate(25.587184, 4.707768)"><g/></g></g><g fill="#000000" fill-opacity="1"><g transform="translate(26.693325, 4.707768)"><g><path d="M 0.203125 -1.390625 L 1.359375 -1.390625 L 1.359375 -0.890625 L 0.203125 -0.890625 Z M 0.203125 -1.390625 "/></g></g></g><g fill="#000000" fill-opacity="1"><g transform="translate(28.216802, 4.707768)"><g/></g></g><g fill="#000000" fill-opacity="1"><g transform="translate(29.322941, 4.707768)"><g><path d="M 1.375 0.046875 C 1.132812 0.046875 0.921875 -0.0078125 0.734375 -0.125 C 0.554688 -0.238281 0.414062 -0.40625 0.3125 -0.625 C 0.207031 -0.84375 0.15625 -1.109375 0.15625 -1.421875 C 0.15625 -1.722656 0.207031 -1.984375 0.3125 -2.203125 C 0.414062 -2.421875 0.554688 -2.585938 0.734375 -2.703125 C 0.921875 -2.816406 1.132812 -2.875 1.375 -2.875 C 1.601562 -2.875 1.8125 -2.816406 2 -2.703125 C 2.1875 -2.585938 2.332031 -2.421875 2.4375 -2.203125 C 2.539062 -1.984375 2.59375 -1.722656 2.59375 -1.421875 C 2.59375 -1.109375 2.539062 -0.84375 2.4375 -0.625 C 2.332031 -0.40625 2.1875 -0.238281 2 -0.125 C 1.8125 -0.0078125 1.601562 0.046875 1.375 0.046875 Z M 1.375 -0.5 C 1.539062 -0.5 1.671875 -0.570312 1.765625 -0.71875 C 1.867188 -0.875 1.921875 -1.109375 1.921875 -1.421875 C 1.921875 -1.722656 1.867188 -1.945312 1.765625 -2.09375 C 1.671875 -2.25 1.539062 -2.328125 1.375 -2.328125 C 1.195312 -2.328125 1.0625 -2.25 0.96875 -2.09375 C 0.875 -1.945312 0.828125 -1.722656 0.828125 -1.421875 C 0.828125 -1.109375 0.875 -0.875 0.96875 -0.71875 C 1.0625 -0.570312 1.195312 -0.5 1.375 -0.5 Z M 1.375 -0.5 "/></g></g></g><g fill="#000000" fill-opacity="1"><g transform="translate(32.033594, 4.707768)"><g><path d="M 1.375 0.046875 C 1.132812 0.046875 0.921875 -0.0078125 0.734375 -0.125 C 0.554688 -0.238281 0.414062 -0.40625 0.3125 -0.625 C 0.207031 -0.84375 0.15625 -1.109375 0.15625 -1.421875 C 0.15625 -1.722656 0.207031 -1.984375 0.3125 -2.203125 C 0.414062 -2.421875 0.554688 -2.585938 0.734375 -2.703125 C 0.921875 -2.816406 1.132812 -2.875 1.375 -2.875 C 1.601562 -2.875 1.8125 -2.816406 2 -2.703125 C 2.1875 -2.585938 2.332031 -2.421875 2.4375 -2.203125 C 2.539062 -1.984375 2.59375 -1.722656 2.59375 -1.421875 C 2.59375 -1.109375 2.539062 -0.84375 2.4375 -0.625 C 2.332031 -0.40625 2.1875 -0.238281 2 -0.125 C 1.8125 -0.0078125 1.601562 0.046875 1.375 0.046875 Z M 1.375 -0.5 C 1.539062 -0.5 1.671875 -0.570312 1.765625 -0.71875 C 1.867188 -0.875 1.921875 -1.109375 1.921875 -1.421875 C 1.921875 -1.722656 1.867188 -1.945312 1.765625 -2.09375 C 1.671875 -2.25 1.539062 -2.328125 1.375 -2.328125 C 1.195312 -2.328125 1.0625 -2.25 0.96875 -2.09375 C 0.875 -1.945312 0.828125 -1.722656 0.828125 -1.421875 C 0.828125 -1.109375 0.875 -0.875 0.96875 -0.71875 C 1.0625 -0.570312 1.195312 -0.5 1.375 -0.5 Z M 1.375 -0.5 "/></g></g></g><g fill="#000000" fill-opacity="1"><g transform="translate(34.719936, 4.707768)"><g><path d="M 2.28125 -0.53125 L 2.28125 0 L 0.140625 0 L 0.140625 -0.421875 L 1.21875 -1.453125 C 1.34375 -1.566406 1.421875 -1.660156 1.453125 -1.734375 C 1.492188 -1.816406 1.515625 -1.898438 1.515625 -1.984375 C 1.515625 -2.097656 1.476562 -2.179688 1.40625 -2.234375 C 1.332031 -2.296875 1.21875 -2.328125 1.0625 -2.328125 C 0.9375 -2.328125 0.820312 -2.300781 0.71875 -2.25 C 0.625 -2.207031 0.546875 -2.140625 0.484375 -2.046875 L 0 -2.359375 C 0.113281 -2.523438 0.265625 -2.648438 0.453125 -2.734375 C 0.648438 -2.828125 0.875 -2.875 1.125 -2.875 C 1.332031 -2.875 1.515625 -2.835938 1.671875 -2.765625 C 1.835938 -2.703125 1.960938 -2.609375 2.046875 -2.484375 C 2.140625 -2.359375 2.1875 -2.210938 2.1875 -2.046875 C 2.1875 -1.890625 2.148438 -1.742188 2.078125 -1.609375 C 2.015625 -1.472656 1.890625 -1.320312 1.703125 -1.15625 L 1.0625 -0.53125 Z M 2.28125 -0.53125 "/></g></g></g><g fill="#000000" fill-opacity="1"><g transform="translate(37.061875, 4.707768)"><g><path d="M 1.375 0.046875 C 1.132812 0.046875 0.921875 -0.0078125 0.734375 -0.125 C 0.554688 -0.238281 0.414062 -0.40625 0.3125 -0.625 C 0.207031 -0.84375 0.15625 -1.109375 0.15625 -1.421875 C 0.15625 -1.722656 0.207031 -1.984375 0.3125 -2.203125 C 0.414062 -2.421875 0.554688 -2.585938 0.734375 -2.703125 C 0.921875 -2.816406 1.132812 -2.875 1.375 -2.875 C 1.601562 -2.875 1.8125 -2.816406 2 -2.703125 C 2.1875 -2.585938 2.332031 -2.421875 2.4375 -2.203125 C 2.539062 -1.984375 2.59375 -1.722656 2.59375 -1.421875 C 2.59375 -1.109375 2.539062 -0.84375 2.4375 -0.625 C 2.332031 -0.40625 2.1875 -0.238281 2 -0.125 C 1.8125 -0.0078125 1.601562 0.046875 1.375 0.046875 Z M 1.375 -0.5 C 1.539062 -0.5 1.671875 -0.570312 1.765625 -0.71875 C 1.867188 -0.875 1.921875 -1.109375 1.921875 -1.421875 C 1.921875 -1.722656 1.867188 -1.945312 1.765625 -2.09375 C 1.671875 -2.25 1.539062 -2.328125 1.375 -2.328125 C 1.195312 -2.328125 1.0625 -2.25 0.96875 -2.09375 C 0.875 -1.945312 0.828125 -1.722656 0.828125 -1.421875 C 0.828125 -1.109375 0.875 -0.875 0.96875 -0.71875 C 1.0625 -0.570312 1.195312 -0.5 1.375 -0.5 Z M 1.375 -0.5 "/></g></g></g><g fill="#000000" fill-opacity="1"><g transform="translate(39.772528, 4.707768)"><g><path d="M 1.375 0.046875 C 1.132812 0.046875 0.921875 -0.0078125 0.734375 -0.125 C 0.554688 -0.238281 0.414062 -0.40625 0.3125 -0.625 C 0.207031 -0.84375 0.15625 -1.109375 0.15625 -1.421875 C 0.15625 -1.722656 0.207031 -1.984375 0.3125 -2.203125 C 0.414062 -2.421875 0.554688 -2.585938 0.734375 -2.703125 C 0.921875 -2.816406 1.132812 -2.875 1.375 -2.875 C 1.601562 -2.875 1.8125 -2.816406 2 -2.703125 C 2.1875 -2.585938 2.332031 -2.421875 2.4375 -2.203125 C 2.539062 -1.984375 2.59375 -1.722656 2.59375 -1.421875 C 2.59375 -1.109375 2.539062 -0.84375 2.4375 -0.625 C 2.332031 -0.40625 2.1875 -0.238281 2 -0.125 C 1.8125 -0.0078125 1.601562 0.046875 1.375 0.046875 Z M 1.375 -0.5 C 1.539062 -0.5 1.671875 -0.570312 1.765625 -0.71875 C 1.867188 -0.875 1.921875 -1.109375 1.921875 -1.421875 C 1.921875 -1.722656 1.867188 -1.945312 1.765625 -2.09375 C 1.671875 -2.25 1.539062 -2.328125 1.375 -2.328125 C 1.195312 -2.328125 1.0625 -2.25 0.96875 -2.09375 C 0.875 -1.945312 0.828125 -1.722656 0.828125 -1.421875 C 0.828125 -1.109375 0.875 -0.875 0.96875 -0.71875 C 1.0625 -0.570312 1.195312 -0.5 1.375 -0.5 Z M 1.375 -0.5 "/></g></g></g><g clip-path="url(#d62d4a1e3e)"><g fill="#000000" fill-opacity="1"><g transform="translate(42.430504, 4.707768)"><g><path d="M 0.53125 -0.75 C 0.644531 -0.75 0.738281 -0.710938 0.8125 -0.640625 C 0.882812 -0.566406 0.921875 -0.472656 0.921875 -0.359375 C 0.921875 -0.304688 0.910156 -0.253906 0.890625 -0.203125 C 0.878906 -0.148438 0.851562 -0.0664062 0.8125 0.046875 L 0.578125 0.625 L 0.1875 0.625 L 0.359375 -0.015625 C 0.296875 -0.046875 0.242188 -0.09375 0.203125 -0.15625 C 0.160156 -0.21875 0.140625 -0.285156 0.140625 -0.359375 C 0.140625 -0.472656 0.175781 -0.566406 0.25 -0.640625 C 0.320312 -0.710938 0.414062 -0.75 0.53125 -0.75 Z M 0.53125 -0.75 "/></g></g></g></g><g fill="#000000" fill-opacity="1"><g transform="translate(43.451559, 4.707768)"><g/></g></g><g fill="#000000" fill-opacity="1"><g transform="translate(44.557698, 4.707768)"><g><path d="M 2.9375 -2.828125 L 2.9375 0 L 2.390625 0 L 0.984375 -1.71875 L 0.984375 0 L 0.328125 0 L 0.328125 -2.828125 L 0.875 -2.828125 L 2.28125 -1.109375 L 2.28125 -2.828125 Z M 2.9375 -2.828125 "/></g></g></g><g fill="#000000" fill-opacity="1"><g transform="translate(47.791033, 4.707768)"><g><path d="M 1.171875 -2.203125 C 1.503906 -2.203125 1.757812 -2.125 1.9375 -1.96875 C 2.125 -1.8125 2.21875 -1.570312 2.21875 -1.25 L 2.21875 0 L 1.625 0 L 1.625 -0.265625 C 1.507812 -0.0664062 1.289062 0.03125 0.96875 0.03125 C 0.800781 0.03125 0.65625 0.00390625 0.53125 -0.046875 C 0.40625 -0.109375 0.3125 -0.1875 0.25 -0.28125 C 0.1875 -0.382812 0.15625 -0.5 0.15625 -0.625 C 0.15625 -0.832031 0.226562 -0.992188 0.375 -1.109375 C 0.53125 -1.222656 0.765625 -1.28125 1.078125 -1.28125 L 1.59375 -1.28125 C 1.59375 -1.414062 1.546875 -1.519531 1.453125 -1.59375 C 1.367188 -1.664062 1.242188 -1.703125 1.078125 -1.703125 C 0.960938 -1.703125 0.847656 -1.679688 0.734375 -1.640625 C 0.628906 -1.609375 0.535156 -1.5625 0.453125 -1.5 L 0.234375 -1.953125 C 0.347656 -2.035156 0.488281 -2.097656 0.65625 -2.140625 C 0.820312 -2.179688 0.992188 -2.203125 1.171875 -2.203125 Z M 1.125 -0.390625 C 1.226562 -0.390625 1.320312 -0.414062 1.40625 -0.46875 C 1.488281 -0.519531 1.550781 -0.59375 1.59375 -0.6875 L 1.59375 -0.90625 L 1.15625 -0.90625 C 0.894531 -0.90625 0.765625 -0.820312 0.765625 -0.65625 C 0.765625 -0.570312 0.796875 -0.503906 0.859375 -0.453125 C 0.921875 -0.410156 1.007812 -0.390625 1.125 -0.390625 Z M 1.125 -0.390625 "/></g></g></g><g fill="#000000" fill-opacity="1"><g transform="translate(50.250476, 4.707768)"><g><path d="M 0.296875 -2.171875 L 0.921875 -2.171875 L 0.921875 0 L 0.296875 0 Z M 0.609375 -2.484375 C 0.492188 -2.484375 0.398438 -2.515625 0.328125 -2.578125 C 0.253906 -2.648438 0.21875 -2.734375 0.21875 -2.828125 C 0.21875 -2.929688 0.253906 -3.015625 0.328125 -3.078125 C 0.398438 -3.148438 0.492188 -3.1875 0.609375 -3.1875 C 0.722656 -3.1875 0.816406 -3.148438 0.890625 -3.078125 C 0.960938 -3.015625 1 -2.9375 1 -2.84375 C 1 -2.738281 0.960938 -2.648438 0.890625 -2.578125 C 0.816406 -2.515625 0.722656 -2.484375 0.609375 -2.484375 Z M 0.609375 -2.484375 "/></g></g></g><g fill="#000000" fill-opacity="1"><g transform="translate(51.429546, 4.707768)"><g><path d="M 0.890625 -1.890625 C 0.960938 -1.992188 1.0625 -2.070312 1.1875 -2.125 C 1.320312 -2.175781 1.472656 -2.203125 1.640625 -2.203125 L 1.640625 -1.625 C 1.566406 -1.632812 1.519531 -1.640625 1.5 -1.640625 C 1.320312 -1.640625 1.179688 -1.585938 1.078125 -1.484375 C 0.972656 -1.378906 0.921875 -1.226562 0.921875 -1.03125 L 0.921875 0 L 0.296875 0 L 0.296875 -2.171875 L 0.890625 -2.171875 Z M 0.890625 -1.890625 "/></g></g></g><g fill="#000000" fill-opacity="1"><g transform="translate(53.098885, 4.707768)"><g><path d="M 1.328125 0.03125 C 1.097656 0.03125 0.890625 -0.015625 0.703125 -0.109375 C 0.523438 -0.203125 0.382812 -0.332031 0.28125 -0.5 C 0.175781 -0.675781 0.125 -0.875 0.125 -1.09375 C 0.125 -1.300781 0.175781 -1.488281 0.28125 -1.65625 C 0.382812 -1.832031 0.523438 -1.96875 0.703125 -2.0625 C 0.890625 -2.15625 1.097656 -2.203125 1.328125 -2.203125 C 1.554688 -2.203125 1.757812 -2.15625 1.9375 -2.0625 C 2.125 -1.96875 2.265625 -1.832031 2.359375 -1.65625 C 2.460938 -1.488281 2.515625 -1.300781 2.515625 -1.09375 C 2.515625 -0.875 2.460938 -0.675781 2.359375 -0.5 C 2.265625 -0.332031 2.125 -0.203125 1.9375 -0.109375 C 1.757812 -0.015625 1.554688 0.03125 1.328125 0.03125 Z M 1.328125 -0.484375 C 1.484375 -0.484375 1.613281 -0.535156 1.71875 -0.640625 C 1.820312 -0.753906 1.875 -0.90625 1.875 -1.09375 C 1.875 -1.269531 1.820312 -1.410156 1.71875 -1.515625 C 1.613281 -1.628906 1.484375 -1.6875 1.328125 -1.6875 C 1.160156 -1.6875 1.023438 -1.628906 0.921875 -1.515625 C 0.816406 -1.410156 0.765625 -1.269531 0.765625 -1.09375 C 0.765625 -0.90625 0.816406 -0.753906 0.921875 -0.640625 C 1.023438 -0.535156 1.160156 -0.484375 1.328125 -0.484375 Z M 1.328125 -0.484375 "/></g></g></g><g fill="#000000" fill-opacity="1"><g transform="translate(55.712296, 4.707768)"><g><path d="M 1.578125 -2.203125 C 1.773438 -2.203125 1.957031 -2.15625 2.125 -2.0625 C 2.289062 -1.976562 2.421875 -1.847656 2.515625 -1.671875 C 2.609375 -1.503906 2.65625 -1.3125 2.65625 -1.09375 C 2.65625 -0.863281 2.609375 -0.664062 2.515625 -0.5 C 2.421875 -0.332031 2.289062 -0.203125 2.125 -0.109375 C 1.957031 -0.015625 1.773438 0.03125 1.578125 0.03125 C 1.273438 0.03125 1.046875 -0.0625 0.890625 -0.25 L 0.890625 0 L 0.296875 0 L 0.296875 -3 L 0.921875 -3 L 0.921875 -1.953125 C 1.078125 -2.117188 1.296875 -2.203125 1.578125 -2.203125 Z M 1.46875 -0.484375 C 1.632812 -0.484375 1.769531 -0.535156 1.875 -0.640625 C 1.976562 -0.753906 2.03125 -0.90625 2.03125 -1.09375 C 2.03125 -1.269531 1.976562 -1.410156 1.875 -1.515625 C 1.769531 -1.628906 1.632812 -1.6875 1.46875 -1.6875 C 1.300781 -1.6875 1.164062 -1.628906 1.0625 -1.515625 C 0.96875 -1.410156 0.921875 -1.269531 0.921875 -1.09375 C 0.921875 -0.90625 0.96875 -0.753906 1.0625 -0.640625 C 1.164062 -0.535156 1.300781 -0.484375 1.46875 -0.484375 Z M 1.46875 -0.484375 "/></g></g></g><g clip-path="url(#ae8923a5ae)"><g fill="#000000" fill-opacity="1"><g transform="translate(58.467519, 4.707768)"><g><path d="M 0.296875 -2.171875 L 0.921875 -2.171875 L 0.921875 0 L 0.296875 0 Z M 0.609375 -2.484375 C 0.492188 -2.484375 0.398438 -2.515625 0.328125 -2.578125 C 0.253906 -2.648438 0.21875 -2.734375 0.21875 -2.828125 C 0.21875 -2.929688 0.253906 -3.015625 0.328125 -3.078125 C 0.398438 -3.148438 0.492188 -3.1875 0.609375 -3.1875 C 0.722656 -3.1875 0.816406 -3.148438 0.890625 -3.078125 C 0.960938 -3.015625 1 -2.9375 1 -2.84375 C 1 -2.738281 0.960938 -2.648438 0.890625 -2.578125 C 0.816406 -2.515625 0.722656 -2.484375 0.609375 -2.484375 Z M 0.609375 -2.484375 "/></g></g></g></g></g></g></g></g></g></svg>